<?xml version="1.0" encoding="UTF-8" standalone="no"?>
<!-- Created with Inkscape (http://www.inkscape.org/) -->

<svg
   width="210mm"
   height="297mm"
   viewBox="0 0 210 297"
   version="1.1"
   id="svg1"
   inkscape:version="1.4 (86a8ad7, 2024-10-11)"
   sodipodi:docname="drawing.svg"
   xmlns:inkscape="http://www.inkscape.org/namespaces/inkscape"
   xmlns:sodipodi="http://sodipodi.sourceforge.net/DTD/sodipodi-0.dtd"
   xmlns="http://www.w3.org/2000/svg"
   xmlns:svg="http://www.w3.org/2000/svg">
  <sodipodi:namedview
     id="namedview1"
     pagecolor="#ffd9d6"
     bordercolor="#666666"
     borderopacity="1.0"
     inkscape:showpageshadow="2"
     inkscape:pageopacity="0.0"
     inkscape:pagecheckerboard="0"
     inkscape:deskcolor="#d1d1d1"
     inkscape:document-units="mm"
     inkscape:zoom="0.72604517"
     inkscape:cx="396.66954"
     inkscape:cy="643.89933"
     inkscape:window-width="1920"
     inkscape:window-height="1017"
     inkscape:window-x="-8"
     inkscape:window-y="-8"
     inkscape:window-maximized="1"
     inkscape:current-layer="layer1" />
  <defs
     id="defs1" />
  <g
     inkscape:label="Layer 1"
     inkscape:groupmode="layer"
     id="layer1">
    <path
       style="fill:#800000;fill-opacity:1;stroke:#000000;stroke-width:0.265;stroke-linecap:butt;stroke-linejoin:miter;stroke-opacity:0;stroke-dasharray:none"
       d="m -1.4576687,298.45767 c 0,0 40.4503047,-56.84909 71.4257657,-30.24663 30.975453,26.60245 11.296933,-12.02577 11.296933,-12.02577 0,0 -1.457669,-27.33128 -26.602454,-9.11043 -25.144785,18.22086 20.771779,-40.81472 20.771779,-40.81472 l 34.255215,36.0773 c 0,0 -67.417177,-28.78896 -18.22086,6.92393 49.19631,35.71288 -15.669937,-4.00859 3.644173,12.7546 19.314107,16.76319 34.984047,2.1865 34.984047,2.1865 l -21.50062,16.03436 c 0,0 -16.398765,-0.36442 -21.136188,2.1865 -4.737423,2.55092 48.831898,3.27975 48.831898,3.27975 0,0 0.36442,-45.91656 16.39877,-20.40736 16.03436,25.5092 56.12025,-18.94969 24.05154,5.46626 -32.06872,24.41595 8.74601,15.30552 13.84785,6.92393 5.10184,-8.3816 13.11902,3.27975 8.01717,5.10184 -5.10183,1.82208 13.11902,15.66993 13.11902,15.66993"
       id="path3"
       sodipodi:nodetypes="cscsccssccscssssc" />
    <path
       style="fill:#aa0000;stroke:#000000;stroke-width:0.265;stroke-linecap:butt;stroke-linejoin:miter;stroke-opacity:0;fill-opacity:1;stroke-dasharray:none"
       d="m 82.722698,212.81963 21.136192,-39.35706 c 0,0 6.55951,37.53497 5.10185,37.53497 -1.45767,0 24.41594,3.27976 24.41594,3.27976 l -32.43312,17.12761"
       id="path4" />
    <path
       style="fill:#aa0000;stroke:#000000;stroke-width:0.265;stroke-linecap:butt;stroke-linejoin:miter;stroke-opacity:0;fill-opacity:1;stroke-dasharray:none"
       d="m 53.569324,232.49816 c -14.212271,-24.41595 -69.239262,-53.56933 -14.212271,-24.41595 55.026994,29.15337 -8.381592,-57.57792 -8.381592,-57.57792 0,0 46.645397,4.73743 41.543556,56.84908"
       id="path5"
       sodipodi:nodetypes="cscc" />
    <path
       style="fill:#d40000;fill-opacity:1;stroke:#000000;stroke-width:0.265;stroke-linecap:butt;stroke-linejoin:miter;stroke-opacity:0;stroke-dasharray:none"
       d="m 105.73384,174.43148 c 0,0 4.18036,-59.44069 11.96184,-25.44809 7.78148,33.9926 -5.04303,16.8126 -5.04303,16.8126 0,0 -0.61747,-1.41743 5.49649,13.90768 6.11396,15.32512 24.61421,-105.443713 15.08915,-34.39936 -9.52506,71.04435 -18.97894,40.30995 -18.97894,40.30995 l 7.37226,22.08481 c 0,0 -6.52806,-5.30724 -8.97707,3.91069"
       id="path6"
       sodipodi:nodetypes="cscssccc" />
    <path
       style="fill:#ff2a2a;fill-opacity:1;stroke:#000000;stroke-width:0.265;stroke-linecap:butt;stroke-linejoin:miter;stroke-opacity:0;stroke-dasharray:none"
       d="m 128.49162,148.45161 c 0,0 -20.75195,-29.84293 -33.504228,-29.57309 -15.496777,0.32791 -35.534339,3.57283 -31.358375,22.32364 C 76.459646,198.81391 54.783691,101.09168 32.781015,86.714362 10.672853,72.268114 88.974385,120.95243 85.85152,71.779648 82.728645,22.606872 84.243425,122.14092 135.42903,122.56043"
       id="path7"
       sodipodi:nodetypes="cssssc" />
    <path
       style="fill:#aa0000;stroke:#000000;stroke-width:0.264583px;stroke-linecap:butt;stroke-linejoin:miter;stroke-opacity:1;fill-opacity:1"
       d="m 144.67362,254.72761 c 0,0 12.39018,4.373 14.9411,14.21227 2.55092,9.83927 6.19509,-155.60614 16.76319,-92.92638 10.5681,62.67975 10.5681,-38.26381 10.5681,-38.26381 0,0 -36.44172,5.46626 -36.0773,22.22945 0.36442,16.76319 -9.11043,59.76442 -9.11043,59.76442 l -33.16196,16.76319 c 0,0 72.51902,10.93251 26.60245,8.01717 -45.916562,-2.91533 -37.170551,3.64418 -37.170551,3.64418 0,0 17.127611,13.11901 31.704291,6.19509 14.57669,-6.92393 14.94111,0.36442 14.94111,0.36442 z"
       id="path1" />
  </g>
</svg>
