<?xml version="1.0" encoding="UTF-8" standalone="no"?>
<!-- Created with Inkscape (http://www.inkscape.org/) -->

<svg
   width="210mm"
   height="297mm"
   viewBox="0 0 210 297"
   version="1.1"
   id="svg1"
   inkscape:version="1.4 (86a8ad7, 2024-10-11)"
   sodipodi:docname="hello.svg"
   xmlns:inkscape="http://www.inkscape.org/namespaces/inkscape"
   xmlns:sodipodi="http://sodipodi.sourceforge.net/DTD/sodipodi-0.dtd"
   xmlns="http://www.w3.org/2000/svg"
   xmlns:svg="http://www.w3.org/2000/svg">
  <sodipodi:namedview
     id="namedview1"
     pagecolor="#ffffff"
     bordercolor="#666666"
     borderopacity="1.0"
     inkscape:showpageshadow="2"
     inkscape:pageopacity="0.0"
     inkscape:pagecheckerboard="0"
     inkscape:deskcolor="#d1d1d1"
     inkscape:document-units="mm"
     inkscape:zoom="2.0535659"
     inkscape:cx="583.61896"
     inkscape:cy="924.9764"
     inkscape:window-width="1920"
     inkscape:window-height="1017"
     inkscape:window-x="-8"
     inkscape:window-y="-8"
     inkscape:window-maximized="1"
     inkscape:current-layer="layer1"
     showgrid="false" />
  <defs
     id="defs1" />
  <g
     inkscape:label="Layer 1"
     inkscape:groupmode="layer"
     id="layer1">
    <rect
       style="fill:#44aa00;stroke-width:0.264583"
       id="rect11"
       width="21.12991"
       height="11.595675"
       x="156.02637"
       y="240.03064" />
    <rect
       style="fill:#1cb1b0;fill-opacity:1;stroke:none;stroke-width:0.189186;stroke-opacity:1"
       id="rect24"
       width="29.246891"
       height="31.179502"
       x="108.09808"
       y="87.359322"
       transform="rotate(40.726774)" />
    <rect
       style="fill:#1c84b1;fill-opacity:1;stroke:none;stroke-width:0.131519;stroke-opacity:1"
       id="rect24-9"
       width="20.197924"
       height="21.819294"
       x="107.41015"
       y="87.463264"
       transform="matrix(0.7281517,0.68541601,-0.61866393,0.78565574,0,0)" />
    <ellipse
       style="fill:#fde720;fill-opacity:1;stroke-width:0.151925"
       id="path10"
       cx="-20.659212"
       cy="158.20062"
       rx="2.9153376"
       ry="13.483436"
       transform="scale(-1,1)" />
    <ellipse
       style="fill:#fde720;fill-opacity:1;stroke-width:0.151925"
       id="path10-2"
       cx="-31.535021"
       cy="157.1313"
       rx="2.9153376"
       ry="13.483436"
       transform="scale(-1,1)" />
    <ellipse
       style="fill:#000000;fill-opacity:1;stroke-width:0.0456905"
       id="path8-1"
       cx="31.582186"
       cy="157.52408"
       rx="0.75787318"
       ry="12.729353" />
    <ellipse
       style="fill:#000000;fill-opacity:1;stroke-width:0.0456905"
       id="path8-1-5"
       cx="21.201769"
       cy="157.84291"
       rx="0.75787318"
       ry="12.729353" />
    <ellipse
       style="fill:#f13f05;fill-opacity:1;stroke:none;stroke-width:0.0611876;stroke-opacity:1"
       id="path19-1"
       cx="172.41328"
       cy="139.79855"
       rx="1.2106136"
       ry="12.971988"
       transform="matrix(0.92017425,0.39150907,-0.50174938,0.86501304,0,0)" />
    <ellipse
       style="fill:#f13f05;fill-opacity:1;stroke:none;stroke-width:0.0589774;stroke-opacity:1"
       id="path19-1-7"
       cx="-32.318024"
       cy="207.02058"
       rx="1.1132107"
       ry="13.106229"
       transform="matrix(0.47201272,-0.88159174,0.49771534,0.86734044,0,0)" />
    <ellipse
       style="fill:#f13f05;fill-opacity:1;stroke:none;stroke-width:0.0729877;stroke-opacity:1"
       id="path19-1-7-3"
       cx="58.672134"
       cy="241.35626"
       rx="1.4742817"
       ry="15.156613"
       transform="matrix(0.67723943,-0.7357627,0.25095698,0.96799824,0,0)" />
    <ellipse
       style="fill:#f13f05;fill-opacity:1;stroke:none;stroke-width:0.0648067;stroke-opacity:1"
       id="path19-1-7-3-3"
       cx="77.476944"
       cy="-195.35771"
       rx="1.276104"
       ry="13.804983"
       transform="matrix(-0.31821124,0.94801983,-0.70410581,-0.71009507,0,0)" />
    <ellipse
       style="fill:#f13f05;fill-opacity:1;stroke:none;stroke-width:0.155927;stroke-opacity:1"
       id="path23"
       cx="171.41203"
       cy="-99.909073"
       rx="1.6046255"
       ry="9.272687"
       transform="matrix(0.02622727,0.99965601,-0.99827392,-0.05872972,0,0)" />
    <ellipse
       style="fill:#f13f05;fill-opacity:1;stroke:none;stroke-width:0.155927;stroke-opacity:1"
       id="path23-8"
       cx="171.72789"
       cy="-83.173927"
       rx="1.6046255"
       ry="9.272687"
       transform="matrix(0.02622727,0.99965601,-0.99827392,-0.05872972,0,0)" />
    <ellipse
       style="fill:#f13f05;fill-opacity:1;stroke:none;stroke-width:0.147452;stroke-opacity:1"
       id="path23-6"
       cx="300.79147"
       cy="128.90144"
       rx="2.1325223"
       ry="6.2393785"
       transform="matrix(0.82372533,0.56698905,-0.99869858,0.05100142,0,0)" />
    <ellipse
       style="fill:#fca604;fill-opacity:1;stroke:none;stroke-width:0.228639;stroke-opacity:1"
       id="path20"
       cx="82.329353"
       cy="198.02849"
       rx="2.5768185"
       ry="2.9633415" />
    <ellipse
       style="fill:#fca604;fill-opacity:1;stroke:none;stroke-width:0.269153;stroke-opacity:1"
       id="path21"
       cx="104.16788"
       cy="203.82637"
       rx="2.1258755"
       ry="2.3191366" />
    <ellipse
       style="fill:#fca604;fill-opacity:1;stroke:none;stroke-width:0.269153;stroke-opacity:1"
       id="path21-2"
       cx="113.27852"
       cy="177.4249"
       rx="2.1258755"
       ry="2.3191366" />
    <ellipse
       style="fill:#fca604;fill-opacity:1;stroke:none;stroke-width:0.185228;stroke-opacity:1"
       id="path22"
       cx="96.179756"
       cy="176.70534"
       rx="2.512398"
       ry="3.0277617" />
    <ellipse
       style="fill:#f13f05;fill-opacity:1;stroke:none;stroke-width:0.0611876;stroke-opacity:1"
       id="path19-1-6"
       cx="199.25566"
       cy="128.88853"
       rx="1.2106136"
       ry="12.971988"
       transform="matrix(0.92017425,0.39150907,-0.50174938,0.86501304,0,0)" />
    <ellipse
       style="fill:#f13f05;fill-opacity:1;stroke:none;stroke-width:0.0589774;stroke-opacity:1"
       id="path19-1-7-5"
       cx="79.908379"
       cy="271.63666"
       rx="1.1132107"
       ry="13.106229"
       transform="matrix(0.71526127,-0.69885715,0.21387226,0.97686164,0,0)" />
    <ellipse
       style="fill:#f13f05;fill-opacity:1;stroke:none;stroke-width:0.062914;stroke-opacity:1"
       id="path19-1-7-3-0"
       cx="109.41654"
       cy="262.10315"
       rx="1.295916"
       ry="12.811525"
       transform="matrix(0.78630031,-0.6178445,0.16391625,0.98647426,0,0)" />
    <ellipse
       style="fill:#f13f05;fill-opacity:1;stroke:none;stroke-width:0.0648067;stroke-opacity:1"
       id="path19-1-7-3-3-9"
       cx="55.782711"
       cy="-224.01569"
       rx="1.276104"
       ry="13.804983"
       transform="matrix(-0.31821124,0.94801983,-0.70410581,-0.71009507,0,0)" />
    <ellipse
       style="fill:#fca604;fill-opacity:1;stroke:none;stroke-width:0.228639;stroke-opacity:1"
       id="path20-0"
       cx="112.50313"
       cy="199.10022"
       rx="2.5768185"
       ry="2.9633415" />
    <ellipse
       style="fill:#fca604;fill-opacity:1;stroke:none;stroke-width:0.269153;stroke-opacity:1"
       id="path21-0"
       cx="131.12062"
       cy="203.22316"
       rx="2.1258755"
       ry="2.3191366" />
    <ellipse
       style="fill:#fca604;fill-opacity:1;stroke:none;stroke-width:0.175098;stroke-opacity:1"
       id="path22-6"
       cx="126.09585"
       cy="178.09918"
       rx="2.512398"
       ry="2.7056594" />
    <ellipse
       style="fill:#f13f05;fill-opacity:1;stroke:none;stroke-width:0.0611876;stroke-opacity:1"
       id="path19-1-4"
       cx="215.218"
       cy="122.74374"
       rx="1.2106136"
       ry="12.971988"
       transform="matrix(0.92017425,0.39150907,-0.50174938,0.86501304,0,0)" />
    <ellipse
       style="fill:#f13f05;fill-opacity:1;stroke:none;stroke-width:0.0589774;stroke-opacity:1"
       id="path19-1-7-0"
       cx="15.533233"
       cy="257.97067"
       rx="1.1132107"
       ry="13.106229"
       transform="matrix(0.47201272,-0.88159174,0.49771534,0.86734044,0,0)" />
    <ellipse
       style="fill:#f13f05;fill-opacity:1;stroke:none;stroke-width:0.0729877;stroke-opacity:1"
       id="path19-1-7-3-7"
       cx="113.30999"
       cy="284.95789"
       rx="1.4742817"
       ry="15.156613"
       transform="matrix(0.67723943,-0.7357627,0.25095698,0.96799824,0,0)" />
    <ellipse
       style="fill:#f13f05;fill-opacity:1;stroke:none;stroke-width:0.0648067;stroke-opacity:1"
       id="path19-1-7-3-3-6"
       cx="40.952637"
       cy="-246.94456"
       rx="1.276104"
       ry="13.804983"
       transform="matrix(-0.31821124,0.94801983,-0.70410581,-0.71009507,0,0)" />
    <ellipse
       style="fill:#f13f05;fill-opacity:1;stroke:none;stroke-width:0.155927;stroke-opacity:1"
       id="path23-3"
       cx="170.59563"
       cy="-147.95847"
       rx="1.6046255"
       ry="9.272687"
       transform="matrix(0.02622727,0.99965601,-0.99827392,-0.05872972,0,0)" />
    <ellipse
       style="fill:#f13f05;fill-opacity:1;stroke:none;stroke-width:0.155927;stroke-opacity:1"
       id="path23-8-6"
       cx="170.91148"
       cy="-131.22331"
       rx="1.6046255"
       ry="9.272687"
       transform="matrix(0.02622727,0.99965601,-0.99827392,-0.05872972,0,0)" />
    <ellipse
       style="fill:#f13f05;fill-opacity:1;stroke:none;stroke-width:0.147452;stroke-opacity:1"
       id="path23-6-1"
       cx="308.10486"
       cy="86.92598"
       rx="2.1325223"
       ry="6.2393785"
       transform="matrix(0.82372533,0.56698905,-0.99869858,0.05100142,0,0)" />
    <ellipse
       style="fill:#fca604;fill-opacity:1;stroke:none;stroke-width:0.228639;stroke-opacity:1"
       id="path20-5"
       cx="130.2744"
       cy="200.03429"
       rx="2.5768185"
       ry="2.9633415" />
    <ellipse
       style="fill:#fca604;fill-opacity:1;stroke:none;stroke-width:0.269153;stroke-opacity:1"
       id="path21-4"
       cx="152.11292"
       cy="205.83217"
       rx="2.1258755"
       ry="2.3191366" />
    <ellipse
       style="fill:#fca604;fill-opacity:1;stroke:none;stroke-width:0.269153;stroke-opacity:1"
       id="path21-2-2"
       cx="161.22356"
       cy="179.43069"
       rx="2.1258755"
       ry="2.3191366" />
    <ellipse
       style="fill:#fca604;fill-opacity:1;stroke:none;stroke-width:0.185228;stroke-opacity:1"
       id="path22-0"
       cx="144.1248"
       cy="178.71114"
       rx="2.512398"
       ry="3.0277617" />
    <ellipse
       style="fill:#f13f05;fill-opacity:1;stroke:none;stroke-width:0.0611876;stroke-opacity:1"
       id="path19-1-6-9"
       cx="242.06038"
       cy="111.83372"
       rx="1.2106136"
       ry="12.971988"
       transform="matrix(0.92017425,0.39150907,-0.50174938,0.86501304,0,0)" />
    <ellipse
       style="fill:#f13f05;fill-opacity:1;stroke:none;stroke-width:0.0589774;stroke-opacity:1"
       id="path19-1-7-5-7"
       cx="134.6218"
       cy="312.83252"
       rx="1.1132107"
       ry="13.106229"
       transform="matrix(0.71526127,-0.69885715,0.21387226,0.97686164,0,0)" />
    <ellipse
       style="fill:#f13f05;fill-opacity:1;stroke:none;stroke-width:0.062914;stroke-opacity:1"
       id="path19-1-7-3-0-3"
       cx="162.97527"
       cy="297.68112"
       rx="1.295916"
       ry="12.811525"
       transform="matrix(0.78630031,-0.6178445,0.16391625,0.98647426,0,0)" />
    <ellipse
       style="fill:#f13f05;fill-opacity:1;stroke:none;stroke-width:0.0648067;stroke-opacity:1"
       id="path19-1-7-3-3-9-7"
       cx="19.258402"
       cy="-275.60254"
       rx="1.276104"
       ry="13.804983"
       transform="matrix(-0.31821124,0.94801983,-0.70410581,-0.71009507,0,0)" />
    <ellipse
       style="fill:#fca604;fill-opacity:1;stroke:none;stroke-width:0.228639;stroke-opacity:1"
       id="path20-0-2"
       cx="160.44817"
       cy="201.10602"
       rx="2.5768185"
       ry="2.9633415" />
    <ellipse
       style="fill:#fca604;fill-opacity:1;stroke:none;stroke-width:0.269153;stroke-opacity:1"
       id="path21-0-6"
       cx="179.06566"
       cy="205.22896"
       rx="2.1258755"
       ry="2.3191366" />
    <ellipse
       style="fill:#fca604;fill-opacity:1;stroke:none;stroke-width:0.175098;stroke-opacity:1"
       id="path22-6-0"
       cx="174.04089"
       cy="180.10498"
       rx="2.512398"
       ry="2.7056594" />
    <ellipse
       style="fill:#f13f05;fill-opacity:1;stroke:none;stroke-width:0.0611876;stroke-opacity:1"
       id="path19-1-4-7"
       cx="129.64139"
       cy="157.91731"
       rx="1.2106136"
       ry="12.971988"
       transform="matrix(0.92017425,0.39150907,-0.50174938,0.86501304,0,0)" />
    <ellipse
       style="fill:#f13f05;fill-opacity:1;stroke:none;stroke-width:0.0589774;stroke-opacity:1"
       id="path19-1-7-0-5"
       cx="-81.231888"
       cy="156.06633"
       rx="1.1132107"
       ry="13.106229"
       transform="matrix(0.47201272,-0.88159174,0.49771534,0.86734044,0,0)" />
    <ellipse
       style="fill:#f13f05;fill-opacity:1;stroke:none;stroke-width:0.0729877;stroke-opacity:1"
       id="path19-1-7-3-7-4"
       cx="3.1753242"
       cy="198.06578"
       rx="1.4742817"
       ry="15.156613"
       transform="matrix(0.67723943,-0.7357627,0.25095698,0.96799824,0,0)" />
    <ellipse
       style="fill:#f13f05;fill-opacity:1;stroke:none;stroke-width:0.0648067;stroke-opacity:1"
       id="path19-1-7-3-3-6-1"
       cx="115.13691"
       cy="-143.56883"
       rx="1.276104"
       ry="13.804983"
       transform="matrix(-0.31821124,0.94801983,-0.70410581,-0.71009507,0,0)" />
    <ellipse
       style="fill:#f13f05;fill-opacity:1;stroke:none;stroke-width:0.155927;stroke-opacity:1"
       id="path23-3-2"
       cx="173.19307"
       cy="-51.329834"
       rx="1.6046255"
       ry="9.272687"
       transform="matrix(0.02622727,0.99965601,-0.99827392,-0.05872972,0,0)" />
    <ellipse
       style="fill:#f13f05;fill-opacity:1;stroke:none;stroke-width:0.155927;stroke-opacity:1"
       id="path23-8-6-0"
       cx="173.50893"
       cy="-34.594681"
       rx="1.6046255"
       ry="9.272687"
       transform="matrix(0.02622727,0.99965601,-0.99827392,-0.05872972,0,0)" />
    <ellipse
       style="fill:#f13f05;fill-opacity:1;stroke:none;stroke-width:0.147452;stroke-opacity:1"
       id="path23-6-1-0"
       cx="294.96805"
       cy="172.61008"
       rx="2.1325223"
       ry="6.2393785"
       transform="matrix(0.82372533,0.56698905,-0.99869858,0.05100142,0,0)" />
    <ellipse
       style="fill:#fca604;fill-opacity:1;stroke:none;stroke-width:0.228639;stroke-opacity:1"
       id="path20-5-1"
       cx="33.88068"
       cy="196.95586"
       rx="2.5768185"
       ry="2.9633415" />
    <ellipse
       style="fill:#fca604;fill-opacity:1;stroke:none;stroke-width:0.269153;stroke-opacity:1"
       id="path21-4-4"
       cx="55.719196"
       cy="202.75374"
       rx="2.1258755"
       ry="2.3191366" />
    <ellipse
       style="fill:#fca604;fill-opacity:1;stroke:none;stroke-width:0.269153;stroke-opacity:1"
       id="path21-2-2-6"
       cx="64.829834"
       cy="176.35226"
       rx="2.1258755"
       ry="2.3191366" />
    <ellipse
       style="fill:#fca604;fill-opacity:1;stroke:none;stroke-width:0.185228;stroke-opacity:1"
       id="path22-0-0"
       cx="47.731083"
       cy="175.63271"
       rx="2.512398"
       ry="3.0277617" />
    <ellipse
       style="fill:#f13f05;fill-opacity:1;stroke:none;stroke-width:0.0611876;stroke-opacity:1"
       id="path19-1-6-9-7"
       cx="156.48376"
       cy="147.00729"
       rx="1.2106136"
       ry="12.971988"
       transform="matrix(0.92017425,0.39150907,-0.50174938,0.86501304,0,0)" />
    <ellipse
       style="fill:#f13f05;fill-opacity:1;stroke:none;stroke-width:0.0589774;stroke-opacity:1"
       id="path19-1-7-5-7-1"
       cx="24.379612"
       cy="230.81276"
       rx="1.1132107"
       ry="13.106229"
       transform="matrix(0.71526127,-0.69885715,0.21387226,0.97686164,0,0)" />
    <ellipse
       style="fill:#f13f05;fill-opacity:1;stroke:none;stroke-width:0.062914;stroke-opacity:1"
       id="path19-1-7-3-0-3-7"
       cx="55.116867"
       cy="227.00705"
       rx="1.295916"
       ry="12.811525"
       transform="matrix(0.78630031,-0.6178445,0.16391625,0.98647426,0,0)" />
    <ellipse
       style="fill:#f13f05;fill-opacity:1;stroke:none;stroke-width:0.0648067;stroke-opacity:1"
       id="path19-1-7-3-3-9-7-7"
       cx="93.44268"
       cy="-172.22681"
       rx="1.276104"
       ry="13.804983"
       transform="matrix(-0.31821124,0.94801983,-0.70410581,-0.71009507,0,0)" />
    <ellipse
       style="fill:#fca604;fill-opacity:1;stroke:none;stroke-width:0.228639;stroke-opacity:1"
       id="path20-0-2-7"
       cx="64.054443"
       cy="198.02759"
       rx="2.5768185"
       ry="2.9633415" />
    <ellipse
       style="fill:#fca604;fill-opacity:1;stroke:none;stroke-width:0.269153;stroke-opacity:1"
       id="path21-0-6-7"
       cx="82.671936"
       cy="202.15053"
       rx="2.1258755"
       ry="2.3191366" />
    <ellipse
       style="fill:#fca604;fill-opacity:1;stroke:none;stroke-width:0.175098;stroke-opacity:1"
       id="path22-6-0-3"
       cx="77.647171"
       cy="177.02655"
       rx="2.512398"
       ry="2.7056594" />
    <text
       xml:space="preserve"
       style="font-size:10.5833px;line-height:1.25;font-family:sans-serif;fill:#c98727;fill-opacity:1;stroke-width:0.264583"
       x="50.763325"
       y="168.78162"
       id="text24"><tspan
         sodipodi:role="line"
         id="tspan24"
         style="fill:#c98727;fill-opacity:1;stroke-width:0.264583"
         x="50.763325"
         y="168.78162">hello</tspan></text>
    <path
       sodipodi:type="star"
       style="fill:#901e37;fill-opacity:1;stroke:none;stroke-width:0.264583;stroke-opacity:1"
       id="path24"
       inkscape:flatsided="false"
       sodipodi:sides="5"
       sodipodi:cx="24.479776"
       sodipodi:cy="169.6835"
       sodipodi:r1="7.9683714"
       sodipodi:r2="4.4198308"
       sodipodi:arg1="1.3258177"
       sodipodi:arg2="0.22575768"
       inkscape:rounded="0"
       inkscape:randomized="0"
       d="m 26.41239,177.41396 2.375063,-6.7411 -11.062567,3.23751 7.145102,0.1757 -6.497577,-9.52068 2.040853,6.84969 7.046843,-9.12161 -5.883785,4.05764 10.852765,3.88321 -5.677231,-4.34193 z"
       inkscape:transform-center-x="-0.48732026"
       inkscape:transform-center-y="0.14410541"
       transform="matrix(0.81599411,0,0,0.84662289,52.221036,22.315285)" />
    <path
       sodipodi:type="star"
       id="path2"
       inkscape:flatsided="false"
       sodipodi:sides="5"
       sodipodi:cx="41.229097"
       sodipodi:cy="238.87108"
       sodipodi:r1="9.5698544"
       sodipodi:r2="4.7849274"
       sodipodi:arg1="2.3276308"
       sodipodi:arg2="2.9559494"
       inkscape:rounded="0"
       inkscape:randomized="0"
       d="m 34.658208,245.82849 1.868176,-6.07422 -3.944695,-4.98252 6.354219,-0.10029 3.519684,-5.29132 2.058947,6.01223 6.119979,1.71232 -5.081719,3.81605 0.262671,6.34958 -5.199623,-3.65377 z"
       style="stroke-width:0.264583"
       inkscape:transform-center-x="-0.37900825"
       inkscape:transform-center-y="-0.54584525" />
    <path
       sodipodi:type="star"
       id="path3"
       inkscape:flatsided="false"
       sodipodi:sides="5"
       sodipodi:cx="69.316418"
       sodipodi:cy="236.68078"
       sodipodi:r1="9.379761"
       sodipodi:r2="4.6898807"
       sodipodi:arg1="2.4925971"
       sodipodi:arg2="3.1209156"
       inkscape:rounded="0"
       inkscape:randomized="0"
       d="m 61.843648,242.34979 2.783895,-5.57204 -3.011875,-5.45218 6.15959,0.92579 4.254609,-4.54928 1.022942,6.14421 5.641368,2.64056 -5.527378,2.87154 -0.768052,6.18124 -4.439048,-4.36949 z"
       style="stroke-width:0.264583"
       inkscape:transform-center-x="-0.8385009"
       inkscape:transform-center-y="-0.059928211" />
    <path
       sodipodi:type="spiral"
       style="fill:none;fill-rule:evenodd;stroke:#000000;stroke-width:0.264583"
       id="path4"
       sodipodi:cx="38.008072"
       sodipodi:cy="253.94547"
       sodipodi:expansion="1"
       sodipodi:revolution="3"
       sodipodi:radius="35.416023"
       sodipodi:argument="-18.125935"
       sodipodi:t0="0.019285869"
       d="m 38.325687,254.55015 c 0.261689,1.92712 -2.528777,1.78872 -3.535139,1.08533 -2.574381,-1.79935 -1.847917,-5.61064 0.155113,-7.52037 3.365181,-3.20844 8.773721,-1.99546 11.505604,1.39555 3.899697,4.84057 2.158026,11.97355 -2.635987,15.49083 -6.289952,4.61482 -15.18804,2.32805 -19.476068,-3.87642 -5.341487,-7.72875 -2.502149,-18.40996 5.11686,-23.4613 9.162278,-6.07452 21.636201,-2.67869 27.446532,6.3573 6.811413,10.59282 2.856786,24.86519 -7.597732,31.43176 -12.021523,7.55082 -28.096048,3.03593 -35.416998,-8.83817 -8.291947,-13.449 -3.21582,-31.32822 10.078606,-39.40223 14.87562,-9.03431 34.561353,-3.39625 43.387462,11.31904 7.271809,12.12389 5.93238,27.84901 -2.804641,38.86305"
       transform="matrix(0.10643682,0.39919137,-0.36888678,0.11518076,172.88534,215.06801)" />
    <path
       sodipodi:type="spiral"
       style="fill:none;fill-rule:evenodd;stroke:#000000;stroke-width:0.264583"
       id="path4-2"
       sodipodi:cx="38.008072"
       sodipodi:cy="253.94547"
       sodipodi:expansion="1"
       sodipodi:revolution="3"
       sodipodi:radius="35.416023"
       sodipodi:argument="-18.125935"
       sodipodi:t0="0.019285869"
       d="m 38.325687,254.55015 c 0.261689,1.92712 -2.528777,1.78872 -3.535139,1.08533 -2.574381,-1.79935 -1.847917,-5.61064 0.155113,-7.52037 3.365181,-3.20844 8.773721,-1.99546 11.505604,1.39555 3.899697,4.84057 2.158026,11.97355 -2.635987,15.49083 -6.289952,4.61482 -15.18804,2.32805 -19.476068,-3.87642 -5.341487,-7.72875 -2.502149,-18.40996 5.11686,-23.4613 9.162278,-6.07452 21.636201,-2.67869 27.446532,6.3573 6.811413,10.59282 2.856786,24.86519 -7.597732,31.43176 -12.021523,7.55082 -28.096048,3.03593 -35.416998,-8.83817 -8.291947,-13.449 -3.21582,-31.32822 10.078606,-39.40223 14.87562,-9.03431 34.561353,-3.39625 43.387462,11.31904 7.271809,12.12389 5.93238,27.84901 -2.804641,38.86305"
       transform="matrix(-0.10390466,0.46958045,0.36011085,0.1354905,-63.880059,206.73452)" />
    <path
       style="fill:none;stroke:#000000;stroke-width:0.264583px;stroke-linecap:butt;stroke-linejoin:miter;stroke-opacity:1"
       d="m 29.24689,274.8177 c 0,0 22.418321,-36.71967 24.093252,-11.85337 1.674932,24.8663 9.405387,-7.21509 9.405387,-7.21509 l 4.380593,17.90887 c 0,0 2.190295,-16.1051 2.061456,-9.27653 -0.128842,6.82856 2.576816,8.63233 2.576816,8.63233 l 6.313207,-0.38651"
       id="path6" />
    <rect
       id="rect6"
       width="15.33207"
       height="29.246891"
       x="121.11047"
       y="232.04251"
       style="stroke-width:0.264583" />
    <rect
       style="fill:#00ffff;stroke-width:0.264583"
       id="rect9"
       width="0.64420462"
       height="4.2517505"
       x="162.59724"
       y="242.0921" />
    <rect
       style="fill:#d4ff2a;stroke-width:0.264583"
       id="rect10"
       width="0.38652277"
       height="7.8592963"
       x="168.65277"
       y="242.22093" />
    <ellipse
       style="fill:#d40000;stroke-width:0.264583"
       id="path12"
       cx="166.33363"
       cy="255.62039"
       rx="2.9633412"
       ry="3.6075459" />
    <ellipse
       style="fill:#8a916f;stroke-width:0.264583"
       id="path13"
       cx="166.78459"
       cy="260.25867"
       rx="2.512398"
       ry="2.1902957" />
    <ellipse
       style="fill:#ff7f2a;stroke-width:0.264583"
       id="path14"
       cx="166.97784"
       cy="253.17241"
       rx="2.8345006"
       ry="1.8037729" />
    <ellipse
       style="fill:#00ff00;stroke-width:0.264583"
       id="path15"
       cx="171.42285"
       cy="263.41525"
       rx="4.0584888"
       ry="2.7700799" />
    <ellipse
       style="fill:#00ffff;stroke-width:0.264583"
       id="path16"
       cx="168.7816"
       cy="266.05649"
       rx="4.7671142"
       ry="1.8037729" />
    <ellipse
       style="fill:#ffff00;stroke-width:0.264583"
       id="path17"
       cx="172.84009"
       cy="271.59665"
       rx="2.7700799"
       ry="4.5094323" />
    <ellipse
       style="fill:#008000;stroke-width:0.264583"
       id="path18"
       cx="178.31584"
       cy="275.52634"
       rx="4.6382732"
       ry="2.1258752" />
    <ellipse
       style="fill:#ccff00;stroke-width:0.264583"
       id="path19"
       cx="182.88969"
       cy="269.85733"
       rx="9.3409672"
       ry="0.32210231" />
    <ellipse
       style="fill:#88aa00;stroke-width:0.264583"
       id="path25"
       cx="186.62607"
       cy="267.53821"
       rx="1.7393525"
       ry="5.475739" />
    <ellipse
       style="fill:#3771c8;stroke-width:0.264583"
       id="path26"
       cx="187.72122"
       cy="262.25571"
       rx="5.2824779"
       ry="1.6105115" />
    <ellipse
       style="fill:#2ca05a;stroke-width:0.264583"
       id="path27"
       cx="160.40695"
       cy="263.28644"
       rx="4.2517505"
       ry="2.898921" />
    <ellipse
       style="fill:#00d455;stroke-width:0.264583"
       id="path28"
       cx="164.0145"
       cy="262.32013"
       rx="1.4172503"
       ry="1.0307274" />
    <path
       style="fill:#5fd38d;fill-opacity:1;stroke:none;stroke-width:0.0823594px;stroke-linecap:butt;stroke-linejoin:miter;stroke-opacity:1"
       d="m 167.62204,250.20906 c -1.01462,10.70064 -1.80377,0.28557 -1.80377,0.28557 l 0.78915,20.97326 z"
       id="path29" />
    <ellipse
       style="fill:#00ffcc;fill-opacity:1;stroke:none;stroke-width:0.264583"
       id="path30"
       cx="156.02635"
       cy="265.79883"
       rx="0.51536369"
       ry="2.5768185" />
    <ellipse
       style="fill:#ffaaaa;fill-opacity:1;stroke:none;stroke-width:0.264583"
       id="path31"
       cx="156.21964"
       cy="259.0347"
       rx="0.70862514"
       ry="4.0584888" />
  </g>
</svg>
