<?xml version="1.0" encoding="UTF-8" standalone="no"?>
<!-- Created with Inkscape (http://www.inkscape.org/) -->

<svg
   width="1024mm"
   height="128mm"
   viewBox="0 0 1024 128"
   version="1.1"
   id="svg1"
   inkscape:version="1.4 (86a8ad7, 2024-10-11)"
   sodipodi:docname="my website header.svg"
   xmlns:inkscape="http://www.inkscape.org/namespaces/inkscape"
   xmlns:sodipodi="http://sodipodi.sourceforge.net/DTD/sodipodi-0.dtd"
   xmlns="http://www.w3.org/2000/svg"
   xmlns:svg="http://www.w3.org/2000/svg">
  <sodipodi:namedview
     id="namedview1"
     pagecolor="#ffffff"
     bordercolor="#666666"
     borderopacity="1.0"
     inkscape:showpageshadow="2"
     inkscape:pageopacity="0.0"
     inkscape:pagecheckerboard="0"
     inkscape:deskcolor="#d1d1d1"
     inkscape:document-units="mm"
     inkscape:zoom="0.36302259"
     inkscape:cx="2614.1624"
     inkscape:cy="381.51896"
     inkscape:window-width="1920"
     inkscape:window-height="1017"
     inkscape:window-x="-8"
     inkscape:window-y="-8"
     inkscape:window-maximized="1"
     inkscape:current-layer="layer1" />
  <defs
     id="defs1">
    <meshgradient
       inkscape:collect="always"
       id="meshgradient1"
       gradientUnits="userSpaceOnUse"
       x="221.83708"
       y="56.423336">
      <meshrow
         id="meshrow1">
        <meshpatch
           id="meshpatch1">
          <stop
             path="c 162.634,0  325.268,0  487.903,0"
             style="stop-color:#ffffff;stop-opacity:1"
             id="stop1" />
          <stop
             path="c 0,18.0731  0,36.1462  0,54.2193"
             style="stop-color:#000000;stop-opacity:1"
             id="stop2" />
          <stop
             path="c -162.634,0  -325.268,0  -487.903,0"
             style="stop-color:#ffffff;stop-opacity:1"
             id="stop3" />
          <stop
             path="c 0,-18.0731  0,-36.1462  0,-54.2193"
             style="stop-color:#000000;stop-opacity:1"
             id="stop4" />
        </meshpatch>
      </meshrow>
    </meshgradient>
  </defs>
  <g
     inkscape:label="Layer 1"
     inkscape:groupmode="layer"
     id="layer1">
    <text
       xml:space="preserve"
       style="font-size:72.9574px;line-height:1.25;font-family:Castellar;stroke-width:1.82394;-inkscape-font-specification:'Castellar, Normal';font-weight:normal;font-style:normal;font-stretch:normal;font-variant:normal;font-variant-ligatures:normal;font-variant-caps:normal;font-variant-numeric:normal;font-variant-east-asian:normal;fill-opacity:1;fill:url(#meshgradient1)"
       x="220.94649"
       y="109.25333"
       id="text1"
       transform="scale(1.4556288,0.68698834)"><tspan
         id="tspan1"
         style="stroke-width:1.82394;-inkscape-font-specification:'Castellar, Normal';font-family:Castellar;font-weight:normal;font-style:normal;font-stretch:normal;font-variant:normal;font-size:72.9574003px;font-variant-ligatures:normal;font-variant-caps:normal;font-variant-numeric:normal;font-variant-east-asian:normal;fill-opacity:1;fill:url(#meshgradient1)"
         x="220.94649"
         y="109.25333"
         sodipodi:role="line">My Website</tspan></text>
    <ellipse
       style="opacity:1;fill:none;stroke:#ff0303;stroke-width:0.264583;stroke-opacity:1"
       id="path8"
       cx="200.79387"
       cy="72.154602"
       rx="27.331285"
       ry="21.86503" />
    <path
       sodipodi:type="spiral"
       style="fill:none;fill-rule:evenodd;stroke:#000000;stroke-width:0.264583"
       id="path9"
       sodipodi:cx="231.76933"
       sodipodi:cy="31.339876"
       sodipodi:expansion="1"
       sodipodi:revolution="3"
       sodipodi:radius="107.86995"
       sodipodi:argument="-18.212811"
       sodipodi:t0="0.019285869"
       d="m 232.89288,33.090753 c 1.30333,5.778298 -7.20038,6.095791 -10.43988,4.227449 -8.28699,-4.779421 -7.08989,-16.536048 -1.51677,-22.860117 9.36309,-10.6247167 26.09482,-8.373479 35.28035,1.193903 13.11212,13.657211 9.71241,35.761154 -3.90458,47.700593 -17.86608,15.665058 -45.46995,11.077805 -60.12083,-6.615254 -18.25022,-22.039791 -12.45755,-55.200235 9.32593,-72.54107 26.19584,-20.853311 64.943,-13.845842 84.96131,12.0366057 23.46733,30.3418213 15.23958,74.6936953 -14.74728,97.3815463 -34.48153,26.088481 -84.44976,16.637001 -109.80179,-17.457957 -28.71454,-38.61706 -18.037,-94.209613 20.16864,-122.222023 42.74968,-31.34411 103.97226,-19.438913 134.64226,22.879308 25.26893,34.865873 25.36042,82.934714 1.76032,118.663646" />
    <path
       sodipodi:type="spiral"
       style="fill:none;fill-rule:evenodd;stroke:#000000;stroke-width:0.264583"
       id="path9-2"
       sodipodi:cx="231.76933"
       sodipodi:cy="31.339876"
       sodipodi:expansion="1"
       sodipodi:revolution="3"
       sodipodi:radius="107.86995"
       sodipodi:argument="-18.212811"
       sodipodi:t0="0.019285869"
       d="m 232.89288,33.090753 c 1.30333,5.778298 -7.20038,6.095791 -10.43988,4.227449 -8.28699,-4.779421 -7.08989,-16.536048 -1.51677,-22.860117 9.36309,-10.6247167 26.09482,-8.373479 35.28035,1.193903 13.11212,13.657211 9.71241,35.761154 -3.90458,47.700593 -17.86608,15.665058 -45.46995,11.077805 -60.12083,-6.615254 -18.25022,-22.039791 -12.45755,-55.200235 9.32593,-72.54107 26.19584,-20.853311 64.943,-13.845842 84.96131,12.0366057 23.46733,30.3418213 15.23958,74.6936953 -14.74728,97.3815463 -34.48153,26.088481 -84.44976,16.637001 -109.80179,-17.457957 -28.71454,-38.61706 -18.037,-94.209613 20.16864,-122.222023 42.74968,-31.34411 103.97226,-19.438913 134.64226,22.879308 25.26893,34.865873 25.36042,82.934714 1.76032,118.663646"
       transform="translate(42.64818,69.457644)" />
    <path
       sodipodi:type="spiral"
       style="fill:none;fill-rule:evenodd;stroke:#000000;stroke-width:0.264583"
       id="path9-24"
       sodipodi:cx="231.76933"
       sodipodi:cy="31.339876"
       sodipodi:expansion="1"
       sodipodi:revolution="3"
       sodipodi:radius="107.86995"
       sodipodi:argument="-18.212811"
       sodipodi:t0="0.019285869"
       d="m 232.89288,33.090753 c 1.30333,5.778298 -7.20038,6.095791 -10.43988,4.227449 -8.28699,-4.779421 -7.08989,-16.536048 -1.51677,-22.860117 9.36309,-10.6247167 26.09482,-8.373479 35.28035,1.193903 13.11212,13.657211 9.71241,35.761154 -3.90458,47.700593 -17.86608,15.665058 -45.46995,11.077805 -60.12083,-6.615254 -18.25022,-22.039791 -12.45755,-55.200235 9.32593,-72.54107 26.19584,-20.853311 64.943,-13.845842 84.96131,12.0366057 23.46733,30.3418213 15.23958,74.6936953 -14.74728,97.3815463 -34.48153,26.088481 -84.44976,16.637001 -109.80179,-17.457957 -28.71454,-38.61706 -18.037,-94.209613 20.16864,-122.222023 42.74968,-31.34411 103.97226,-19.438913 134.64226,22.879308 25.26893,34.865873 25.36042,82.934714 1.76032,118.663646"
       transform="translate(87.09818,30.828477)" />
    <path
       sodipodi:type="spiral"
       style="fill:none;fill-rule:evenodd;stroke:#000000;stroke-width:0.264583"
       id="path9-0"
       sodipodi:cx="231.76933"
       sodipodi:cy="31.339876"
       sodipodi:expansion="1"
       sodipodi:revolution="3"
       sodipodi:radius="107.86995"
       sodipodi:argument="-18.212811"
       sodipodi:t0="0.019285869"
       d="m 232.89288,33.090753 c 1.30333,5.778298 -7.20038,6.095791 -10.43988,4.227449 -8.28699,-4.779421 -7.08989,-16.536048 -1.51677,-22.860117 9.36309,-10.6247167 26.09482,-8.373479 35.28035,1.193903 13.11212,13.657211 9.71241,35.761154 -3.90458,47.700593 -17.86608,15.665058 -45.46995,11.077805 -60.12083,-6.615254 -18.25022,-22.039791 -12.45755,-55.200235 9.32593,-72.54107 26.19584,-20.853311 64.943,-13.845842 84.96131,12.0366057 23.46733,30.3418213 15.23958,74.6936953 -14.74728,97.3815463 -34.48153,26.088481 -84.44976,16.637001 -109.80179,-17.457957 -28.71454,-38.61706 -18.037,-94.209613 20.16864,-122.222023 42.74968,-31.34411 103.97226,-19.438913 134.64226,22.879308 25.26893,34.865873 25.36042,82.934714 1.76032,118.663646"
       transform="translate(180.4961,46.968061)" />
    <path
       sodipodi:type="spiral"
       style="fill:none;fill-rule:evenodd;stroke:#000000;stroke-width:0.264583"
       id="path9-6"
       sodipodi:cx="231.76933"
       sodipodi:cy="31.339876"
       sodipodi:expansion="1"
       sodipodi:revolution="3"
       sodipodi:radius="107.86995"
       sodipodi:argument="-18.212811"
       sodipodi:t0="0.019285869"
       d="m 232.89288,33.090753 c 1.30333,5.778298 -7.20038,6.095791 -10.43988,4.227449 -8.28699,-4.779421 -7.08989,-16.536048 -1.51677,-22.860117 9.36309,-10.6247167 26.09482,-8.373479 35.28035,1.193903 13.11212,13.657211 9.71241,35.761154 -3.90458,47.700593 -17.86608,15.665058 -45.46995,11.077805 -60.12083,-6.615254 -18.25022,-22.039791 -12.45755,-55.200235 9.32593,-72.54107 26.19584,-20.853311 64.943,-13.845842 84.96131,12.0366057 23.46733,30.3418213 15.23958,74.6936953 -14.74728,97.3815463 -34.48153,26.088481 -84.44976,16.637001 -109.80179,-17.457957 -28.71454,-38.61706 -18.037,-94.209613 20.16864,-122.222023 42.74968,-31.34411 103.97226,-19.438913 134.64226,22.879308 25.26893,34.865873 25.36042,82.934714 1.76032,118.663646"
       transform="translate(316.75651,51.995144)" />
    <path
       sodipodi:type="spiral"
       style="fill:none;fill-rule:evenodd;stroke:#000000;stroke-width:0.264583"
       id="path9-9"
       sodipodi:cx="231.76933"
       sodipodi:cy="31.339876"
       sodipodi:expansion="1"
       sodipodi:revolution="3"
       sodipodi:radius="107.86995"
       sodipodi:argument="-18.212811"
       sodipodi:t0="0.019285869"
       d="m 232.89288,33.090753 c 1.30333,5.778298 -7.20038,6.095791 -10.43988,4.227449 -8.28699,-4.779421 -7.08989,-16.536048 -1.51677,-22.860117 9.36309,-10.6247167 26.09482,-8.373479 35.28035,1.193903 13.11212,13.657211 9.71241,35.761154 -3.90458,47.700593 -17.86608,15.665058 -45.46995,11.077805 -60.12083,-6.615254 -18.25022,-22.039791 -12.45755,-55.200235 9.32593,-72.54107 26.19584,-20.853311 64.943,-13.845842 84.96131,12.0366057 23.46733,30.3418213 15.23958,74.6936953 -14.74728,97.3815463 -34.48153,26.088481 -84.44976,16.637001 -109.80179,-17.457957 -28.71454,-38.61706 -18.037,-94.209613 20.16864,-122.222023 42.74968,-31.34411 103.97226,-19.438913 134.64226,22.879308 25.26893,34.865873 25.36042,82.934714 1.76032,118.663646"
       transform="translate(303.79193,90.624311)" />
    <path
       sodipodi:type="spiral"
       style="fill:none;fill-rule:evenodd;stroke:#000000;stroke-width:0.264583"
       id="path9-60"
       sodipodi:cx="231.76933"
       sodipodi:cy="31.339876"
       sodipodi:expansion="1"
       sodipodi:revolution="3"
       sodipodi:radius="107.86995"
       sodipodi:argument="-18.212811"
       sodipodi:t0="0.019285869"
       d="m 232.89288,33.090753 c 1.30333,5.778298 -7.20038,6.095791 -10.43988,4.227449 -8.28699,-4.779421 -7.08989,-16.536048 -1.51677,-22.860117 9.36309,-10.6247167 26.09482,-8.373479 35.28035,1.193903 13.11212,13.657211 9.71241,35.761154 -3.90458,47.700593 -17.86608,15.665058 -45.46995,11.077805 -60.12083,-6.615254 -18.25022,-22.039791 -12.45755,-55.200235 9.32593,-72.54107 26.19584,-20.853311 64.943,-13.845842 84.96131,12.0366057 23.46733,30.3418213 15.23958,74.6936953 -14.74728,97.3815463 -34.48153,26.088481 -84.44976,16.637001 -109.80179,-17.457957 -28.71454,-38.61706 -18.037,-94.209613 20.16864,-122.222023 42.74968,-31.34411 103.97226,-19.438913 134.64226,22.879308 25.26893,34.865873 25.36042,82.934714 1.76032,118.663646"
       transform="translate(165.15026,51.995144)" />
    <path
       sodipodi:type="spiral"
       style="fill:none;fill-rule:evenodd;stroke:#000000;stroke-width:0.264583"
       id="path9-8"
       sodipodi:cx="231.76933"
       sodipodi:cy="31.339876"
       sodipodi:expansion="1"
       sodipodi:revolution="3"
       sodipodi:radius="107.86995"
       sodipodi:argument="-18.212811"
       sodipodi:t0="0.019285869"
       d="m 232.89288,33.090753 c 1.30333,5.778298 -7.20038,6.095791 -10.43988,4.227449 -8.28699,-4.779421 -7.08989,-16.536048 -1.51677,-22.860117 9.36309,-10.6247167 26.09482,-8.373479 35.28035,1.193903 13.11212,13.657211 9.71241,35.761154 -3.90458,47.700593 -17.86608,15.665058 -45.46995,11.077805 -60.12083,-6.615254 -18.25022,-22.039791 -12.45755,-55.200235 9.32593,-72.54107 26.19584,-20.853311 64.943,-13.845842 84.96131,12.0366057 23.46733,30.3418213 15.23958,74.6936953 -14.74728,97.3815463 -34.48153,26.088481 -84.44976,16.637001 -109.80179,-17.457957 -28.71454,-38.61706 -18.037,-94.209613 20.16864,-122.222023 42.74968,-31.34411 103.97226,-19.438913 134.64226,22.879308 25.26893,34.865873 25.36042,82.934714 1.76032,118.663646"
       transform="translate(163.82735,18.393061)" />
    <path
       sodipodi:type="spiral"
       style="fill:none;fill-rule:evenodd;stroke:#000000;stroke-width:0.264583"
       id="path9-3"
       sodipodi:cx="231.76933"
       sodipodi:cy="31.339876"
       sodipodi:expansion="1"
       sodipodi:revolution="3"
       sodipodi:radius="107.86995"
       sodipodi:argument="-18.212811"
       sodipodi:t0="0.019285869"
       d="m 232.89288,33.090753 c 1.30333,5.778298 -7.20038,6.095791 -10.43988,4.227449 -8.28699,-4.779421 -7.08989,-16.536048 -1.51677,-22.860117 9.36309,-10.6247167 26.09482,-8.373479 35.28035,1.193903 13.11212,13.657211 9.71241,35.761154 -3.90458,47.700593 -17.86608,15.665058 -45.46995,11.077805 -60.12083,-6.615254 -18.25022,-22.039791 -12.45755,-55.200235 9.32593,-72.54107 26.19584,-20.853311 64.943,-13.845842 84.96131,12.0366057 23.46733,30.3418213 15.23958,74.6936953 -14.74728,97.3815463 -34.48153,26.088481 -84.44976,16.637001 -109.80179,-17.457957 -28.71454,-38.61706 -18.037,-94.209613 20.16864,-122.222023 42.74968,-31.34411 103.97226,-19.438913 134.64226,22.879308 25.26893,34.865873 25.36042,82.934714 1.76032,118.663646"
       transform="translate(364.91068,25.801394)" />
    <path
       sodipodi:type="spiral"
       style="fill:none;fill-rule:evenodd;stroke:#000000;stroke-width:0.264583"
       id="path9-88"
       sodipodi:cx="231.76933"
       sodipodi:cy="31.339876"
       sodipodi:expansion="1"
       sodipodi:revolution="3"
       sodipodi:radius="107.86995"
       sodipodi:argument="-18.212811"
       sodipodi:t0="0.019285869"
       d="m 232.89288,33.090753 c 1.30333,5.778298 -7.20038,6.095791 -10.43988,4.227449 -8.28699,-4.779421 -7.08989,-16.536048 -1.51677,-22.860117 9.36309,-10.6247167 26.09482,-8.373479 35.28035,1.193903 13.11212,13.657211 9.71241,35.761154 -3.90458,47.700593 -17.86608,15.665058 -45.46995,11.077805 -60.12083,-6.615254 -18.25022,-22.039791 -12.45755,-55.200235 9.32593,-72.54107 26.19584,-20.853311 64.943,-13.845842 84.96131,12.0366057 23.46733,30.3418213 15.23958,74.6936953 -14.74728,97.3815463 -34.48153,26.088481 -84.44976,16.637001 -109.80179,-17.457957 -28.71454,-38.61706 -18.037,-94.209613 20.16864,-122.222023 42.74968,-31.34411 103.97226,-19.438913 134.64226,22.879308 25.26893,34.865873 25.36042,82.934714 1.76032,118.663646"
       transform="translate(-126.94974,75.278477)" />
    <path
       sodipodi:type="spiral"
       style="fill:none;fill-rule:evenodd;stroke:#000000;stroke-width:0.264583"
       id="path9-29"
       sodipodi:cx="231.76933"
       sodipodi:cy="31.339876"
       sodipodi:expansion="1"
       sodipodi:revolution="3"
       sodipodi:radius="107.86995"
       sodipodi:argument="-18.212811"
       sodipodi:t0="0.019285869"
       d="m 232.89288,33.090753 c 1.30333,5.778298 -7.20038,6.095791 -10.43988,4.227449 -8.28699,-4.779421 -7.08989,-16.536048 -1.51677,-22.860117 9.36309,-10.6247167 26.09482,-8.373479 35.28035,1.193903 13.11212,13.657211 9.71241,35.761154 -3.90458,47.700593 -17.86608,15.665058 -45.46995,11.077805 -60.12083,-6.615254 -18.25022,-22.039791 -12.45755,-55.200235 9.32593,-72.54107 26.19584,-20.853311 64.943,-13.845842 84.96131,12.0366057 23.46733,30.3418213 15.23958,74.6936953 -14.74728,97.3815463 -34.48153,26.088481 -84.44976,16.637001 -109.80179,-17.457957 -28.71454,-38.61706 -18.037,-94.209613 20.16864,-122.222023 42.74968,-31.34411 103.97226,-19.438913 134.64226,22.879308 25.26893,34.865873 25.36042,82.934714 1.76032,118.663646"
       transform="translate(514.40026,51.201394)" />
    <path
       sodipodi:type="spiral"
       style="fill:none;fill-rule:evenodd;stroke:#000000;stroke-width:0.264583"
       id="path9-98"
       sodipodi:cx="231.76933"
       sodipodi:cy="31.339876"
       sodipodi:expansion="1"
       sodipodi:revolution="3"
       sodipodi:radius="107.86995"
       sodipodi:argument="-18.212811"
       sodipodi:t0="0.019285869"
       d="m 232.89288,33.090753 c 1.30333,5.778298 -7.20038,6.095791 -10.43988,4.227449 -8.28699,-4.779421 -7.08989,-16.536048 -1.51677,-22.860117 9.36309,-10.6247167 26.09482,-8.373479 35.28035,1.193903 13.11212,13.657211 9.71241,35.761154 -3.90458,47.700593 -17.86608,15.665058 -45.46995,11.077805 -60.12083,-6.615254 -18.25022,-22.039791 -12.45755,-55.200235 9.32593,-72.54107 26.19584,-20.853311 64.943,-13.845842 84.96131,12.0366057 23.46733,30.3418213 15.23958,74.6936953 -14.74728,97.3815463 -34.48153,26.088481 -84.44976,16.637001 -109.80179,-17.457957 -28.71454,-38.61706 -18.037,-94.209613 20.16864,-122.222023 42.74968,-31.34411 103.97226,-19.438913 134.64226,22.879308 25.26893,34.865873 25.36042,82.934714 1.76032,118.663646"
       transform="translate(528.95235,64.959727)" />
    <path
       sodipodi:type="spiral"
       style="fill:none;fill-rule:evenodd;stroke:#000000;stroke-width:0.264583"
       id="path9-63"
       sodipodi:cx="231.76933"
       sodipodi:cy="31.339876"
       sodipodi:expansion="1"
       sodipodi:revolution="3"
       sodipodi:radius="107.86995"
       sodipodi:argument="-18.212811"
       sodipodi:t0="0.019285869"
       d="m 232.89288,33.090753 c 1.30333,5.778298 -7.20038,6.095791 -10.43988,4.227449 -8.28699,-4.779421 -7.08989,-16.536048 -1.51677,-22.860117 9.36309,-10.6247167 26.09482,-8.373479 35.28035,1.193903 13.11212,13.657211 9.71241,35.761154 -3.90458,47.700593 -17.86608,15.665058 -45.46995,11.077805 -60.12083,-6.615254 -18.25022,-22.039791 -12.45755,-55.200235 9.32593,-72.54107 26.19584,-20.853311 64.943,-13.845842 84.96131,12.0366057 23.46733,30.3418213 15.23958,74.6936953 -14.74728,97.3815463 -34.48153,26.088481 -84.44976,16.637001 -109.80179,-17.457957 -28.71454,-38.61706 -18.037,-94.209613 20.16864,-122.222023 42.74968,-31.34411 103.97226,-19.438913 134.64226,22.879308 25.26893,34.865873 25.36042,82.934714 1.76032,118.663646"
       transform="translate(572.6086,11.778477)" />
    <path
       sodipodi:type="spiral"
       style="fill:none;fill-rule:evenodd;stroke:#000000;stroke-width:0.264583"
       id="path9-4"
       sodipodi:cx="231.76933"
       sodipodi:cy="31.339876"
       sodipodi:expansion="1"
       sodipodi:revolution="3"
       sodipodi:radius="107.86995"
       sodipodi:argument="-18.212811"
       sodipodi:t0="0.019285869"
       d="m 232.89288,33.090753 c 1.30333,5.778298 -7.20038,6.095791 -10.43988,4.227449 -8.28699,-4.779421 -7.08989,-16.536048 -1.51677,-22.860117 9.36309,-10.6247167 26.09482,-8.373479 35.28035,1.193903 13.11212,13.657211 9.71241,35.761154 -3.90458,47.700593 -17.86608,15.665058 -45.46995,11.077805 -60.12083,-6.615254 -18.25022,-22.039791 -12.45755,-55.200235 9.32593,-72.54107 26.19584,-20.853311 64.943,-13.845842 84.96131,12.0366057 23.46733,30.3418213 15.23958,74.6936953 -14.74728,97.3815463 -34.48153,26.088481 -84.44976,16.637001 -109.80179,-17.457957 -28.71454,-38.61706 -18.037,-94.209613 20.16864,-122.222023 42.74968,-31.34411 103.97226,-19.438913 134.64226,22.879308 25.26893,34.865873 25.36042,82.934714 1.76032,118.663646"
       transform="translate(418.09193,42.470144)" />
    <path
       sodipodi:type="spiral"
       style="fill:none;fill-rule:evenodd;stroke:#000000;stroke-width:0.264583"
       id="path9-7"
       sodipodi:cx="231.76933"
       sodipodi:cy="31.339876"
       sodipodi:expansion="1"
       sodipodi:revolution="3"
       sodipodi:radius="107.86995"
       sodipodi:argument="-18.212811"
       sodipodi:t0="0.019285869"
       d="m 232.89288,33.090753 c 1.30333,5.778298 -7.20038,6.095791 -10.43988,4.227449 -8.28699,-4.779421 -7.08989,-16.536048 -1.51677,-22.860117 9.36309,-10.6247167 26.09482,-8.373479 35.28035,1.193903 13.11212,13.657211 9.71241,35.761154 -3.90458,47.700593 -17.86608,15.665058 -45.46995,11.077805 -60.12083,-6.615254 -18.25022,-22.039791 -12.45755,-55.200235 9.32593,-72.54107 26.19584,-20.853311 64.943,-13.845842 84.96131,12.0366057 23.46733,30.3418213 15.23958,74.6936953 -14.74728,97.3815463 -34.48153,26.088481 -84.44976,16.637001 -109.80179,-17.457957 -28.71454,-38.61706 -18.037,-94.209613 20.16864,-122.222023 42.74968,-31.34411 103.97226,-19.438913 134.64226,22.879308 25.26893,34.865873 25.36042,82.934714 1.76032,118.663646"
       transform="translate(383.16693,94.328477)" />
    <path
       sodipodi:type="spiral"
       style="fill:none;fill-rule:evenodd;stroke:#000000;stroke-width:0.264583"
       id="path9-601"
       sodipodi:cx="231.76933"
       sodipodi:cy="31.339876"
       sodipodi:expansion="1"
       sodipodi:revolution="3"
       sodipodi:radius="107.86995"
       sodipodi:argument="-18.212811"
       sodipodi:t0="0.019285869"
       d="m 232.89288,33.090753 c 1.30333,5.778298 -7.20038,6.095791 -10.43988,4.227449 -8.28699,-4.779421 -7.08989,-16.536048 -1.51677,-22.860117 9.36309,-10.6247167 26.09482,-8.373479 35.28035,1.193903 13.11212,13.657211 9.71241,35.761154 -3.90458,47.700593 -17.86608,15.665058 -45.46995,11.077805 -60.12083,-6.615254 -18.25022,-22.039791 -12.45755,-55.200235 9.32593,-72.54107 26.19584,-20.853311 64.943,-13.845842 84.96131,12.0366057 23.46733,30.3418213 15.23958,74.6936953 -14.74728,97.3815463 -34.48153,26.088481 -84.44976,16.637001 -109.80179,-17.457957 -28.71454,-38.61706 -18.037,-94.209613 20.16864,-122.222023 42.74968,-31.34411 103.97226,-19.438913 134.64226,22.879308 25.26893,34.865873 25.36042,82.934714 1.76032,118.663646"
       transform="translate(620.76276,75.278477)" />
    <path
       sodipodi:type="spiral"
       style="fill:none;fill-rule:evenodd;stroke:#000000;stroke-width:0.264583"
       id="path9-5"
       sodipodi:cx="231.76933"
       sodipodi:cy="31.339876"
       sodipodi:expansion="1"
       sodipodi:revolution="3"
       sodipodi:radius="107.86995"
       sodipodi:argument="-18.212811"
       sodipodi:t0="0.019285869"
       d="m 232.89288,33.090753 c 1.30333,5.778298 -7.20038,6.095791 -10.43988,4.227449 -8.28699,-4.779421 -7.08989,-16.536048 -1.51677,-22.860117 9.36309,-10.6247167 26.09482,-8.373479 35.28035,1.193903 13.11212,13.657211 9.71241,35.761154 -3.90458,47.700593 -17.86608,15.665058 -45.46995,11.077805 -60.12083,-6.615254 -18.25022,-22.039791 -12.45755,-55.200235 9.32593,-72.54107 26.19584,-20.853311 64.943,-13.845842 84.96131,12.0366057 23.46733,30.3418213 15.23958,74.6936953 -14.74728,97.3815463 -34.48153,26.088481 -84.44976,16.637001 -109.80179,-17.457957 -28.71454,-38.61706 -18.037,-94.209613 20.16864,-122.222023 42.74968,-31.34411 103.97226,-19.438913 134.64226,22.879308 25.26893,34.865873 25.36042,82.934714 1.76032,118.663646"
       transform="translate(665.21276,66.547227)" />
    <path
       sodipodi:type="spiral"
       style="fill:none;fill-rule:evenodd;stroke:#000000;stroke-width:0.264583"
       id="path9-00"
       sodipodi:cx="231.76933"
       sodipodi:cy="31.339876"
       sodipodi:expansion="1"
       sodipodi:revolution="3"
       sodipodi:radius="107.86995"
       sodipodi:argument="-18.212811"
       sodipodi:t0="0.019285869"
       d="m 232.89288,33.090753 c 1.30333,5.778298 -7.20038,6.095791 -10.43988,4.227449 -8.28699,-4.779421 -7.08989,-16.536048 -1.51677,-22.860117 9.36309,-10.6247167 26.09482,-8.373479 35.28035,1.193903 13.11212,13.657211 9.71241,35.761154 -3.90458,47.700593 -17.86608,15.665058 -45.46995,11.077805 -60.12083,-6.615254 -18.25022,-22.039791 -12.45755,-55.200235 9.32593,-72.54107 26.19584,-20.853311 64.943,-13.845842 84.96131,12.0366057 23.46733,30.3418213 15.23958,74.6936953 -14.74728,97.3815463 -34.48153,26.088481 -84.44976,16.637001 -109.80179,-17.457957 -28.71454,-38.61706 -18.037,-94.209613 20.16864,-122.222023 42.74968,-31.34411 103.97226,-19.438913 134.64226,22.879308 25.26893,34.865873 25.36042,82.934714 1.76032,118.663646"
       transform="translate(703.84193,15.482644)" />
    <path
       sodipodi:type="spiral"
       style="fill:none;fill-rule:evenodd;stroke:#000000;stroke-width:0.264583"
       id="path9-07"
       sodipodi:cx="231.76933"
       sodipodi:cy="31.339876"
       sodipodi:expansion="1"
       sodipodi:revolution="3"
       sodipodi:radius="107.86995"
       sodipodi:argument="-18.212811"
       sodipodi:t0="0.019285869"
       d="m 232.89288,33.090753 c 1.30333,5.778298 -7.20038,6.095791 -10.43988,4.227449 -8.28699,-4.779421 -7.08989,-16.536048 -1.51677,-22.860117 9.36309,-10.6247167 26.09482,-8.373479 35.28035,1.193903 13.11212,13.657211 9.71241,35.761154 -3.90458,47.700593 -17.86608,15.665058 -45.46995,11.077805 -60.12083,-6.615254 -18.25022,-22.039791 -12.45755,-55.200235 9.32593,-72.54107 26.19584,-20.853311 64.943,-13.845842 84.96131,12.0366057 23.46733,30.3418213 15.23958,74.6936953 -14.74728,97.3815463 -34.48153,26.088481 -84.44976,16.637001 -109.80179,-17.457957 -28.71454,-38.61706 -18.037,-94.209613 20.16864,-122.222023 42.74968,-31.34411 103.97226,-19.438913 134.64226,22.879308 25.26893,34.865873 25.36042,82.934714 1.76032,118.663646"
       transform="translate(538.47735,22.097227)" />
    <path
       sodipodi:type="spiral"
       style="fill:none;fill-rule:evenodd;stroke:#000000;stroke-width:0.264583"
       id="path9-77"
       sodipodi:cx="231.76933"
       sodipodi:cy="31.339876"
       sodipodi:expansion="1"
       sodipodi:revolution="3"
       sodipodi:radius="107.86995"
       sodipodi:argument="-18.212811"
       sodipodi:t0="0.019285869"
       d="m 232.89288,33.090753 c 1.30333,5.778298 -7.20038,6.095791 -10.43988,4.227449 -8.28699,-4.779421 -7.08989,-16.536048 -1.51677,-22.860117 9.36309,-10.6247167 26.09482,-8.373479 35.28035,1.193903 13.11212,13.657211 9.71241,35.761154 -3.90458,47.700593 -17.86608,15.665058 -45.46995,11.077805 -60.12083,-6.615254 -18.25022,-22.039791 -12.45755,-55.200235 9.32593,-72.54107 26.19584,-20.853311 64.943,-13.845842 84.96131,12.0366057 23.46733,30.3418213 15.23958,74.6936953 -14.74728,97.3815463 -34.48153,26.088481 -84.44976,16.637001 -109.80179,-17.457957 -28.71454,-38.61706 -18.037,-94.209613 20.16864,-122.222023 42.74968,-31.34411 103.97226,-19.438913 134.64226,22.879308 25.26893,34.865873 25.36042,82.934714 1.76032,118.663646"
       transform="translate(717.60026,43.793061)" />
    <path
       sodipodi:type="spiral"
       style="fill:none;fill-rule:evenodd;stroke:#000000;stroke-width:0.264583"
       id="path9-99"
       sodipodi:cx="231.76933"
       sodipodi:cy="31.339876"
       sodipodi:expansion="1"
       sodipodi:revolution="3"
       sodipodi:radius="107.86995"
       sodipodi:argument="-18.212811"
       sodipodi:t0="0.019285869"
       d="m 232.89288,33.090753 c 1.30333,5.778298 -7.20038,6.095791 -10.43988,4.227449 -8.28699,-4.779421 -7.08989,-16.536048 -1.51677,-22.860117 9.36309,-10.6247167 26.09482,-8.373479 35.28035,1.193903 13.11212,13.657211 9.71241,35.761154 -3.90458,47.700593 -17.86608,15.665058 -45.46995,11.077805 -60.12083,-6.615254 -18.25022,-22.039791 -12.45755,-55.200235 9.32593,-72.54107 26.19584,-20.853311 64.943,-13.845842 84.96131,12.0366057 23.46733,30.3418213 15.23958,74.6936953 -14.74728,97.3815463 -34.48153,26.088481 -84.44976,16.637001 -109.80179,-17.457957 -28.71454,-38.61706 -18.037,-94.209613 20.16864,-122.222023 42.74968,-31.34411 103.97226,-19.438913 134.64226,22.879308 25.26893,34.865873 25.36042,82.934714 1.76032,118.663646"
       transform="translate(-113.1914,14.159727)" />
    <path
       sodipodi:type="spiral"
       style="fill:none;fill-rule:evenodd;stroke:#000000;stroke-width:0.264583"
       id="path9-26"
       sodipodi:cx="231.76933"
       sodipodi:cy="31.339876"
       sodipodi:expansion="1"
       sodipodi:revolution="3"
       sodipodi:radius="107.86995"
       sodipodi:argument="-18.212811"
       sodipodi:t0="0.019285869"
       d="m 232.89288,33.090753 c 1.30333,5.778298 -7.20038,6.095791 -10.43988,4.227449 -8.28699,-4.779421 -7.08989,-16.536048 -1.51677,-22.860117 9.36309,-10.6247167 26.09482,-8.373479 35.28035,1.193903 13.11212,13.657211 9.71241,35.761154 -3.90458,47.700593 -17.86608,15.665058 -45.46995,11.077805 -60.12083,-6.615254 -18.25022,-22.039791 -12.45755,-55.200235 9.32593,-72.54107 26.19584,-20.853311 64.943,-13.845842 84.96131,12.0366057 23.46733,30.3418213 15.23958,74.6936953 -14.74728,97.3815463 -34.48153,26.088481 -84.44976,16.637001 -109.80179,-17.457957 -28.71454,-38.61706 -18.037,-94.209613 20.16864,-122.222023 42.74968,-31.34411 103.97226,-19.438913 134.64226,22.879308 25.26893,34.865873 25.36042,82.934714 1.76032,118.663646"
       transform="translate(-48.368487,51.995144)" />
    <path
       sodipodi:type="spiral"
       style="fill:none;fill-rule:evenodd;stroke:#000000;stroke-width:0.264583"
       id="path9-80"
       sodipodi:cx="231.76933"
       sodipodi:cy="31.339876"
       sodipodi:expansion="1"
       sodipodi:revolution="3"
       sodipodi:radius="107.86995"
       sodipodi:argument="-18.212811"
       sodipodi:t0="0.019285869"
       d="m 232.89288,33.090753 c 1.30333,5.778298 -7.20038,6.095791 -10.43988,4.227449 -8.28699,-4.779421 -7.08989,-16.536048 -1.51677,-22.860117 9.36309,-10.6247167 26.09482,-8.373479 35.28035,1.193903 13.11212,13.657211 9.71241,35.761154 -3.90458,47.700593 -17.86608,15.665058 -45.46995,11.077805 -60.12083,-6.615254 -18.25022,-22.039791 -12.45755,-55.200235 9.32593,-72.54107 26.19584,-20.853311 64.943,-13.845842 84.96131,12.0366057 23.46733,30.3418213 15.23958,74.6936953 -14.74728,97.3815463 -34.48153,26.088481 -84.44976,16.637001 -109.80179,-17.457957 -28.71454,-38.61706 -18.037,-94.209613 20.16864,-122.222023 42.74968,-31.34411 103.97226,-19.438913 134.64226,22.879308 25.26893,34.865873 25.36042,82.934714 1.76032,118.663646"
       transform="translate(-13.443487,87.713894)" />
    <path
       sodipodi:type="spiral"
       style="fill:none;fill-rule:evenodd;stroke:#000000;stroke-width:0.264583"
       id="path9-09"
       sodipodi:cx="231.76933"
       sodipodi:cy="31.339876"
       sodipodi:expansion="1"
       sodipodi:revolution="3"
       sodipodi:radius="107.86995"
       sodipodi:argument="-18.212811"
       sodipodi:t0="0.019285869"
       d="m 232.89288,33.090753 c 1.30333,5.778298 -7.20038,6.095791 -10.43988,4.227449 -8.28699,-4.779421 -7.08989,-16.536048 -1.51677,-22.860117 9.36309,-10.6247167 26.09482,-8.373479 35.28035,1.193903 13.11212,13.657211 9.71241,35.761154 -3.90458,47.700593 -17.86608,15.665058 -45.46995,11.077805 -60.12083,-6.615254 -18.25022,-22.039791 -12.45755,-55.200235 9.32593,-72.54107 26.19584,-20.853311 64.943,-13.845842 84.96131,12.0366057 23.46733,30.3418213 15.23958,74.6936953 -14.74728,97.3815463 -34.48153,26.088481 -84.44976,16.637001 -109.80179,-17.457957 -28.71454,-38.61706 -18.037,-94.209613 20.16864,-122.222023 42.74968,-31.34411 103.97226,-19.438913 134.64226,22.879308 25.26893,34.865873 25.36042,82.934714 1.76032,118.663646"
       transform="translate(-210.82265,65.753477)" />
    <path
       sodipodi:type="spiral"
       style="fill:none;fill-rule:evenodd;stroke:#000000;stroke-width:0.264583"
       id="path9-35"
       sodipodi:cx="231.76933"
       sodipodi:cy="31.339876"
       sodipodi:expansion="1"
       sodipodi:revolution="3"
       sodipodi:radius="107.86995"
       sodipodi:argument="-18.212811"
       sodipodi:t0="0.019285869"
       d="m 232.89288,33.090753 c 1.30333,5.778298 -7.20038,6.095791 -10.43988,4.227449 -8.28699,-4.779421 -7.08989,-16.536048 -1.51677,-22.860117 9.36309,-10.6247167 26.09482,-8.373479 35.28035,1.193903 13.11212,13.657211 9.71241,35.761154 -3.90458,47.700593 -17.86608,15.665058 -45.46995,11.077805 -60.12083,-6.615254 -18.25022,-22.039791 -12.45755,-55.200235 9.32593,-72.54107 26.19584,-20.853311 64.943,-13.845842 84.96131,12.0366057 23.46733,30.3418213 15.23958,74.6936953 -14.74728,97.3815463 -34.48153,26.088481 -84.44976,16.637001 -109.80179,-17.457957 -28.71454,-38.61706 -18.037,-94.209613 20.16864,-122.222023 42.74968,-31.34411 103.97226,-19.438913 134.64226,22.879308 25.26893,34.865873 25.36042,82.934714 1.76032,118.663646"
       transform="translate(-214.52682,-7.0069393)" />
    <path
       sodipodi:type="spiral"
       style="fill:none;fill-rule:evenodd;stroke:#000000;stroke-width:0.264583"
       id="path9-1"
       sodipodi:cx="231.76933"
       sodipodi:cy="31.339876"
       sodipodi:expansion="1"
       sodipodi:revolution="3"
       sodipodi:radius="107.86995"
       sodipodi:argument="-18.212811"
       sodipodi:t0="0.019285869"
       d="m 232.89288,33.090753 c 1.30333,5.778298 -7.20038,6.095791 -10.43988,4.227449 -8.28699,-4.779421 -7.08989,-16.536048 -1.51677,-22.860117 9.36309,-10.6247167 26.09482,-8.373479 35.28035,1.193903 13.11212,13.657211 9.71241,35.761154 -3.90458,47.700593 -17.86608,15.665058 -45.46995,11.077805 -60.12083,-6.615254 -18.25022,-22.039791 -12.45755,-55.200235 9.32593,-72.54107 26.19584,-20.853311 64.943,-13.845842 84.96131,12.0366057 23.46733,30.3418213 15.23958,74.6936953 -14.74728,97.3815463 -34.48153,26.088481 -84.44976,16.637001 -109.80179,-17.457957 -28.71454,-38.61706 -18.037,-94.209613 20.16864,-122.222023 42.74968,-31.34411 103.97226,-19.438913 134.64226,22.879308 25.26893,34.865873 25.36042,82.934714 1.76032,118.663646"
       transform="translate(-156.84765,70.251394)" />
    <path
       sodipodi:type="spiral"
       style="fill:none;fill-rule:evenodd;stroke:#000000;stroke-width:0.264583"
       id="path9-61"
       sodipodi:cx="231.76933"
       sodipodi:cy="31.339876"
       sodipodi:expansion="1"
       sodipodi:revolution="3"
       sodipodi:radius="107.86995"
       sodipodi:argument="-18.212811"
       sodipodi:t0="0.019285869"
       d="m 232.89288,33.090753 c 1.30333,5.778298 -7.20038,6.095791 -10.43988,4.227449 -8.28699,-4.779421 -7.08989,-16.536048 -1.51677,-22.860117 9.36309,-10.6247167 26.09482,-8.373479 35.28035,1.193903 13.11212,13.657211 9.71241,35.761154 -3.90458,47.700593 -17.86608,15.665058 -45.46995,11.077805 -60.12083,-6.615254 -18.25022,-22.039791 -12.45755,-55.200235 9.32593,-72.54107 26.19584,-20.853311 64.943,-13.845842 84.96131,12.0366057 23.46733,30.3418213 15.23958,74.6936953 -14.74728,97.3815463 -34.48153,26.088481 -84.44976,16.637001 -109.80179,-17.457957 -28.71454,-38.61706 -18.037,-94.209613 20.16864,-122.222023 42.74968,-31.34411 103.97226,-19.438913 134.64226,22.879308 25.26893,34.865873 25.36042,82.934714 1.76032,118.663646"
       transform="translate(19.364847,69.457644)" />
    <path
       sodipodi:type="spiral"
       style="fill:none;fill-rule:evenodd;stroke:#000000;stroke-width:0.264583"
       id="path9-41"
       sodipodi:cx="231.76933"
       sodipodi:cy="31.339876"
       sodipodi:expansion="1"
       sodipodi:revolution="3"
       sodipodi:radius="107.86995"
       sodipodi:argument="-18.212811"
       sodipodi:t0="0.019285869"
       d="m 232.89288,33.090753 c 1.30333,5.778298 -7.20038,6.095791 -10.43988,4.227449 -8.28699,-4.779421 -7.08989,-16.536048 -1.51677,-22.860117 9.36309,-10.6247167 26.09482,-8.373479 35.28035,1.193903 13.11212,13.657211 9.71241,35.761154 -3.90458,47.700593 -17.86608,15.665058 -45.46995,11.077805 -60.12083,-6.615254 -18.25022,-22.039791 -12.45755,-55.200235 9.32593,-72.54107 26.19584,-20.853311 64.943,-13.845842 84.96131,12.0366057 23.46733,30.3418213 15.23958,74.6936953 -14.74728,97.3815463 -34.48153,26.088481 -84.44976,16.637001 -109.80179,-17.457957 -28.71454,-38.61706 -18.037,-94.209613 20.16864,-122.222023 42.74968,-31.34411 103.97226,-19.438913 134.64226,22.879308 25.26893,34.865873 25.36042,82.934714 1.76032,118.663646"
       transform="translate(301.41068,24.213894)" />
    <path
       style="opacity:1;fill:#000000;fill-opacity:1;stroke:none;stroke-width:0.264583;stroke-opacity:1"
       id="path18"
       d="m 48.681459,95.130545 c 0.33912,-0.802619 0.589818,-1.64864 1.01736,-2.407857 3.337148,-5.926015 8.338209,-10.758278 12.96515,-15.647103 12.297619,-12.993669 0.308975,-0.211117 12.247395,-12.978358 4.643615,-4.914437 9.012092,-10.084054 13.677998,-14.977763 1.538864,-1.613998 4.08704,-4.203613 5.932469,-5.646986 0.752954,-0.58891 1.592413,-1.057937 2.388621,-1.586905 -0.349668,0.537419 -1.295569,1.020403 -1.049004,1.612257 0.37596,0.902449 1.706272,0.991068 2.41436,1.665137 0.989685,0.942133 1.839112,2.029555 2.634182,3.140839 4.09117,5.718331 5.80036,12.549429 7.87572,19.15318 3.00229,9.878054 5.37846,19.928768 7.78689,29.962847 0.24191,1.007854 3.11329,13.413587 3.80923,15.201647 0.4538,1.16594 1.36477,2.09733 2.04715,3.14599 1.99344,-1.16118 4.39449,-1.80806 5.98033,-3.48356 1.44542,-1.52715 5.35515,-12.09682 5.80354,-13.394067 2.63524,-7.624043 4.39946,-15.475609 6.19621,-23.324738 1.11466,-5.531625 2.28924,-11.059144 3.79927,-16.498988 0.33362,-1.201851 0.6102,-2.426742 1.07552,-3.58399 0.295,-0.733655 1.91113,-1.726041 1.19061,-2.051812 -0.79538,-0.359614 -1.33749,1.122032 -2.00623,1.683046 0.40651,0.443325 0.9697,0.782823 1.21952,1.329973 1.25028,2.738295 1.98001,8.281935 2.30505,10.74656 0.40791,3.092979 0.68929,6.201386 1.011,9.304515 0.7527,7.26033 1.4493,14.735545 2.14133,22.000985 0.35955,3.386836 0.7191,6.773666 1.07865,10.160506 0,0 2.91897,-1.52743 2.91897,-1.52743 v 0 c -0.3775,-3.37575 -0.75499,-6.75151 -1.13248,-10.127263 -1.82444,-19.27829 -0.28799,-2.863532 -2.03688,-22.057532 -0.2855,-3.133383 -0.51632,-6.272453 -0.8683,-9.399066 -0.27545,-2.446774 -0.9073,-8.329647 -2.11113,-11.095693 -0.29414,-0.675857 -0.94278,-1.133295 -1.41418,-1.699943 -1.53562,0.750073 -3.24875,1.212781 -4.60686,2.250218 -0.92687,0.708025 -1.97682,5.254495 -2.08212,5.654921 -1.42567,5.421394 -2.54144,10.919407 -3.6132,16.41933 -1.77025,7.836365 -3.49891,15.676366 -6.19056,23.264618 -10.5005,29.60282 3.86372,-11.524802 -6.19346,13.33217 -0.0984,0.24327 0.508,0.13196 0.762,0.19794 -0.72656,-0.9765 -1.70288,-1.80964 -2.17968,-2.92951 -0.82119,-1.92879 -3.69492,-13.879993 -3.99397,-15.08992 -2.47887,-10.029078 -4.84429,-20.090966 -7.7368,-30.012298 -2.35256,-7.867235 -4.25109,-16.639278 -10.27033,-22.703652 -0.74595,-0.751539 -1.46859,-1.94306 -2.527318,-1.924553 -1.982306,0.03466 -3.718264,1.377492 -5.577395,2.066237 -0.774073,0.538308 -1.589038,1.022125 -2.322214,1.61493 -1.811811,1.464921 -4.26475,4.004556 -5.788128,5.626118 -4.58465,4.880136 -8.893241,10.013146 -13.480201,14.891406 -10.229746,10.956446 -1.672119,1.838201 -12.25832,12.981262 -4.740116,4.989457 -9.831882,9.899391 -13.2892,15.926808 -0.453941,0.791388 -0.733065,1.670939 -1.099601,2.506409 z" />
    <path
       style="opacity:1;fill:#000000;fill-opacity:1;stroke:none;stroke-width:0.264583;stroke-opacity:1"
       id="path19"
       d="m 173.36905,63.608986 c 0.19083,1.223063 0.31919,2.457519 0.57247,3.669189 1.0227,4.892455 2.60653,10.742126 3.98459,15.479122 1.41649,4.869059 3.18882,10.609279 5.07922,15.357438 0.80048,2.010615 1.76628,3.951405 2.64942,5.927105 1.11334,1.22492 1.94671,2.78111 3.34003,3.67476 2.5894,1.6608 5.60803,1.08611 8.07081,-0.37785 7.23693,-4.30186 6.98754,-4.96096 11.63383,-10.874173 0,0 -3.24064,1.385067 -3.24064,1.385067 v 0 c -1.44791,1.788276 -2.95248,3.532126 -4.34373,5.364826 -0.43651,0.57501 -0.52819,1.44976 -1.13099,1.84702 -2.2799,1.50253 -5.31013,2.26613 -7.86221,0.75367 -1.39801,-0.82851 -2.24907,-2.34628 -3.3736,-3.51942 -0.90168,-1.95478 -1.88947,-3.872096 -2.70504,-5.86434 -1.93817,-4.734475 -3.73591,-10.413764 -5.12945,-15.296803 -1.61233,-5.649685 -2.67956,-9.886907 -3.66161,-15.599886 -0.21235,-1.235302 -0.28799,-2.490245 -0.43199,-3.735369 z" />
    <path
       style="opacity:1;fill:#000000;fill-opacity:1;stroke:none;stroke-width:0.264583;stroke-opacity:1"
       id="path20"
       d="m 224.29015,62.699947 c 0.32745,7.809076 1.00649,15.685648 -0.37414,23.443385 -1.19461,6.712442 -2.05683,7.891234 -4.59843,14.074258 -2.28036,4.67044 -4.94263,9.16734 -8.30968,13.14266 -0.98742,1.1658 -2.59109,2.82349 -3.90053,3.75313 -0.51395,0.36488 -1.09814,0.61903 -1.64721,0.92854 0.57168,-0.46773 1.8249,-0.67276 1.71504,-1.40318 -0.0957,-0.63615 -1.28958,0.039 -1.92976,-0.0244 -0.81175,-0.0803 -1.61056,-0.26063 -2.41331,-0.4055 -3.8656,-0.69762 -7.6915,-1.17679 -11.60235,-1.57789 -7.92406,-0.84978 -15.9147,-0.75542 -23.83838,-1.56648 -0.72041,-0.0947 -1.44082,-0.18938 -2.16124,-0.28407 0,0 -3.14165,2.22215 -3.14165,2.22215 v 0 c 0.73205,0.0907 1.4641,0.18146 2.19615,0.27219 7.96271,0.776 15.99069,0.60329 23.94939,1.48529 3.50939,0.37583 5.20527,0.49912 8.59511,1.06975 1.18803,0.19999 6.1483,1.53802 7.27125,1.17975 1.74726,-0.55744 3.31421,-1.57185 4.97132,-2.35778 0.53143,-0.32761 1.09661,-0.60592 1.5943,-0.98283 1.26925,-0.96122 2.79785,-2.60036 3.76008,-3.77754 3.26828,-3.99835 5.85195,-8.48811 8.06735,-13.140364 2.52771,-6.280269 3.32647,-7.353159 4.53986,-14.153634 1.39991,-7.845866 0.71795,-15.784464 0.72819,-23.695405 z" />
    <path
       style="opacity:1;fill:#000000;fill-opacity:1;stroke:none;stroke-width:0.264583;stroke-opacity:1"
       id="path21"
       d="m 275.29237,70.621598 c 6.24805,18.806761 11.72892,37.898082 18.83111,56.413382 1.10289,2.87517 2.33672,5.69837 3.50506,8.54756 1.29183,1.88122 2.12413,4.1806 3.87549,5.64366 3.40217,2.84212 7.44564,1.9716 10.91528,-0.0383 11.1982,-6.48696 16.26118,-14.95066 23.50934,-25.14597 2.05719,-3.19306 4.11437,-6.38613 6.17156,-9.5792 1.66968,-2.8223 3.26549,-5.68963 5.00904,-8.466892 1.21846,-1.94083 2.65555,-3.738623 3.87263,-5.68031 0.14301,-0.228143 -0.66231,0.23903 -0.62942,0.506269 0.10803,0.877814 0.66297,1.639935 0.99444,2.459906 0.14565,1.889405 0.2913,3.778811 0.43698,5.668217 -0.10035,11.28203 0.0437,5.50063 -0.45056,17.17413 -0.10974,2.59232 -0.3816,5.1829 -0.3285,7.777 0.0339,1.65773 -0.0275,3.39998 0.58878,4.93928 0.29419,0.73478 1.19033,1.6318 1.93796,1.37197 2.36017,-0.82025 4.13801,-2.80177 6.20702,-4.20266 1.18261,-2.05704 2.54564,-4.02039 3.5478,-6.17111 3.68078,-7.89927 6.37537,-16.65744 8.79761,-24.960429 4.05942,-13.915001 7.24982,-28.038843 10.356,-42.187918 0.70847,-3.359658 1.41692,-6.719316 2.12537,-10.078974 0,0 -2.96217,1.434917 -2.96217,1.434917 v 0 c -0.6581,3.334055 -1.31619,6.668109 -1.97429,10.002166 -2.97678,14.137565 -6.05753,28.239658 -10.21988,42.089331 -2.50478,8.334327 -5.41435,17.256207 -9.3255,25.121327 -1.07445,2.1607 -2.54016,4.10367 -3.81024,6.1555 0.16227,0.23761 0.7693,0.76767 0.48683,0.71282 -3.03749,-0.58989 -2.55137,-2.83461 -2.66366,-5.78678 -0.0636,-1.6721 0.62727,-15.56929 0.66625,-16.64796 0.10109,-2.79851 0.14541,-5.59878 0.21809,-8.398178 -0.1084,-1.957017 0.0377,-3.944924 -0.32522,-5.871048 -0.20252,-1.074825 -0.25223,-3.041491 -1.34488,-2.992935 -4.5911,0.204023 -7.38693,5.89162 -9.2383,8.914693 -13.88769,22.676788 5.06757,-7.131394 -11.04397,17.954508 -7.91644,11.0061 -5.63801,8.50415 -14.3768,18.17411 -1.09442,1.21103 -2.01168,2.66973 -3.40619,3.51806 -3.29893,2.00686 -7.28544,3.12314 -10.7016,0.44248 -1.77978,-1.39659 -2.65491,-3.66383 -3.98238,-5.49574 -1.20769,-2.82168 -2.4888,-5.61307 -3.62312,-8.46504 -7.33751,-18.44847 -12.8632,-37.567622 -18.44212,-56.598215 z" />
    <path
       style="opacity:1;fill:#000000;fill-opacity:1;stroke:none;stroke-width:0.264583;stroke-opacity:1"
       id="path23"
       d="m 402.61489,12.260942 c 0.47898,1.942097 0.95364,3.885258 1.4369,5.826292 2.64118,10.60854 4.19587,16.394932 6.61302,27.75876 4.30081,20.219471 7.72287,40.616621 11.22641,60.984296 0.89783,5.10686 4.01349,23.12794 5.25756,29.20039 0.6191,3.02186 1.19438,6.06344 2.09558,9.01349 0.2341,0.76639 1.63227,6.9985 4.84095,5.53683 2.56693,-1.16933 4.53644,-3.35363 6.80468,-5.03045 4.75195,-6.50968 9.0025,-13.36632 13.64795,-19.94936 3.15397,-4.46949 4.60918,-6.84743 8.73181,-10.18082 1.15948,-0.93751 2.51568,-1.60147 3.77351,-2.4022 0.0768,0.62388 -0.1664,1.38406 0.23032,1.87164 0.73218,0.89986 2.0411,1.1522 2.88108,1.95237 1.80871,1.72299 5.46166,7.49148 2.44469,9.88547 -0.68445,0.54312 -1.71566,-0.33223 -2.57349,-0.49834 -2.67171,-0.10738 -5.35485,-0.0529 -8.01513,-0.32214 -9.67841,-0.97956 -20.15099,-3.55856 -27.6805,-10.09641 -1.4936,-1.29688 -2.67274,-2.91674 -4.00912,-4.3751 -2.37355,-4.20455 -3.60956,-5.26893 -3.96359,-10.16504 -0.31362,-4.33739 1.31789,-9.736411 3.45072,-13.498254 0.60425,-1.06576 1.43118,-1.988881 2.14675,-2.983323 0,0 -3.43519,1.492965 -3.43519,1.492965 v 0 c -0.69461,1.012169 -1.49829,1.957572 -2.08386,3.036506 -2.1527,3.966477 -3.6562,9.132091 -3.27409,13.671716 0.41638,4.94626 1.6804,6.06205 4.09321,10.30667 1.36009,1.47432 2.56109,3.11318 4.08033,4.42294 7.63672,6.58378 18.11623,9.07779 27.87634,10.19923 2.64033,0.30337 5.30524,0.32826 7.95784,0.49239 2.93939,-1.09825 6.25153,-1.48962 8.8182,-3.29475 0.99967,-0.70307 0.97004,-2.32958 0.91482,-3.55049 -0.10422,-2.3049 -2.02144,-5.21309 -3.58378,-6.74121 -0.8771,-0.85788 -1.77178,-2.07765 -2.99728,-2.13628 -2.3054,-0.11029 -4.47956,1.11429 -6.71936,1.67143 -1.21875,0.81086 -2.53503,1.49144 -3.65625,2.43256 -3.97293,3.33478 -5.46211,5.79271 -8.53146,10.17183 -4.65733,6.64475 -8.95305,13.54734 -13.91912,19.97456 -0.2068,1.05605 -0.24572,3.82616 -2.95006,1.15072 -1.23261,-1.21944 -1.77712,-3.00528 -2.3423,-4.64447 -0.99671,-2.89072 -1.64034,-5.89375 -2.31923,-8.87515 -1.62571,-7.13907 -4.44013,-22.46737 -5.66992,-28.97451 -3.62706,-20.36861 -7.08342,-40.779894 -11.06572,-61.083177 -2.23155,-11.377374 -3.65818,-17.420553 -5.94061,-28.122844 -0.4209,-1.973467 -0.81851,-3.951819 -1.22777,-5.927728 z" />
    <path
       style="opacity:1;fill:#000000;fill-opacity:1;stroke:none;stroke-width:0.264583;stroke-opacity:1"
       id="path24"
       d="m 535.22625,47.66874 c -7.21577,0.242316 -14.44693,0.688671 -21.54761,2.070349 -1.69569,0.329957 -3.39363,0.677746 -5.04587,1.182042 -1.36946,0.417986 -2.66356,1.051668 -3.99534,1.577501 -1.85928,1.426348 -4.40592,2.249763 -5.57784,4.27904 -1.46164,2.530922 2.8866,9.3917 3.57214,10.477529 4.92554,7.801608 11.76179,13.567818 18.48943,19.730794 1.99226,1.936941 4.13758,3.727982 5.97678,5.810819 1.27822,1.447583 2.96838,2.840524 3.3365,4.73628 0.22092,1.137721 -0.82878,2.389116 -1.84444,2.947376 -0.87873,0.483 -1.99168,-0.28513 -2.99442,-0.28768 -14.89197,-0.0378 -2.71508,1.07561 -18.33306,-1.027233 -2.92023,-1.151811 -5.84046,-2.303621 -8.7607,-3.455429 0,0 -2.77952,1.863317 -2.77952,1.863317 v 0 c 2.93862,1.171538 5.87724,2.343073 8.81586,3.514605 9.65409,1.38203 18.49789,3.40948 27.47957,-2.144624 1.01404,-0.62707 1.80454,-2.085237 1.51262,-3.241223 -0.47902,-1.897141 -2.19688,-3.255666 -3.51768,-4.699304 -1.88262,-2.057696 -4.04001,-3.846036 -6.05999,-5.769054 -6.63901,-6.087581 -13.49688,-11.952459 -18.24334,-19.73458 -1.13456,-1.860174 -2.25759,-3.77485 -2.90664,-5.854806 -0.42873,-1.373984 0.0456,-2.90445 -0.26519,-4.309816 -0.0703,-0.317802 -0.53925,-0.364636 -0.80886,-0.546952 1.33673,-0.552805 2.63197,-1.219092 4.01019,-1.658408 1.65949,-0.528985 3.36923,-0.893289 5.07653,-1.238081 6.97598,-1.408808 14.1029,-1.900952 21.20898,-1.896139 z" />
    <path
       style="opacity:1;fill:#000000;fill-opacity:1;stroke:none;stroke-width:0.264583;stroke-opacity:1"
       id="path25"
       d="m 597.13206,74.492854 c -0.53057,1.528125 -1.13663,3.032104 -1.59171,4.584378 -2.43155,8.29347 -4.20814,16.803483 -6.12883,25.224248 0,0 3.06599,-1.47712 3.06599,-1.47712 v 0 c 2.26634,-10.074824 4.31689,-20.303396 8.13377,-29.932264 z" />
    <circle
       id="path26"
       style="fill:#000000;stroke:#000000;stroke-width:0.264583"
       cx="596.18646"
       cy="0"
       r="0.097080022" />
    <path
       style="opacity:1;fill:#000000;fill-opacity:1;stroke:none;stroke-width:0.264583;stroke-opacity:1"
       id="path27"
       d="m 575.22466,24.46283 c 0.95785,-0.0074 1.91567,-0.01595 2.87351,-0.02234 5.3693,-0.03577 10.65178,0.310218 15.96888,1.124888 4.23357,0.648658 8.32664,1.575459 12.51116,2.46263 0,0 2.9341,-2.040023 2.9341,-2.040023 v 0 C 599.20719,23.8307 588.95612,21.781945 578.36318,22.182567 Z" />
    <path
       style="opacity:1;fill:#000000;fill-opacity:1;stroke:none;stroke-width:0.264583;stroke-opacity:1"
       id="path28"
       d="m 649.08588,16.085351 c 0.0103,0.537025 -0.005,1.075191 0.0313,1.611076 0.65098,9.557061 0.14047,-4.243605 0.85606,12.760654 0.39219,9.319633 0.54242,18.228173 0.48831,27.578368 -0.0289,4.991674 -0.17949,9.981898 -0.26924,14.972847 -0.17081,4.615415 -0.34163,9.230831 -0.51244,13.846246 0,0 2.71618,-1.372208 2.71618,-1.372208 v 0 c 0.14661,-4.60501 0.29324,-9.210019 0.43987,-13.815028 0.24988,-13.812055 0.37122,-16.118086 0.30316,-29.923028 -0.0222,-4.484405 -0.21023,-16.726638 -0.36882,-22.018838 -0.038,-1.265635 -0.15254,-2.528221 -0.18931,-3.793889 -0.0159,-0.547533 0.0209,-1.095328 0.0313,-1.642992 z" />
    <path
       style="opacity:1;fill:#000000;fill-opacity:1;stroke:none;stroke-width:0.264583;stroke-opacity:1"
       id="path29"
       d="m 616.5815,60.083837 c 2.06595,-0.06707 4.13314,-0.102669 6.19781,-0.2012 5.94167,-0.283546 13.43607,-0.82278 19.29956,-1.227653 9.02964,-0.623496 18.05741,-1.217277 27.07735,-1.967905 8.30239,-0.769051 4.38473,-0.394454 11.75366,-1.116409 0,0 2.92063,-2.168081 2.92063,-2.168081 v 0 c -7.46969,0.805717 -3.50176,0.390478 -11.90482,1.235707 -9.0578,0.808911 -18.12449,1.453489 -27.19792,2.065288 -5.56168,0.37501 -13.37913,0.894971 -19.05746,1.069893 -1.99523,0.06146 -3.99225,0.02633 -5.98834,0.03949 z" />
  </g>
  <script
     id="mesh_polyfill"
     type="text/javascript">
!function(){const t=&quot;http://www.w3.org/2000/svg&quot;,e=&quot;http://www.w3.org/1999/xlink&quot;,s=&quot;http://www.w3.org/1999/xhtml&quot;,r=2;if(document.createElementNS(t,&quot;meshgradient&quot;).x)return;const n=(t,e,s,r)=&gt;{let n=new x(.5*(e.x+s.x),.5*(e.y+s.y)),o=new x(.5*(t.x+e.x),.5*(t.y+e.y)),i=new x(.5*(s.x+r.x),.5*(s.y+r.y)),a=new x(.5*(n.x+o.x),.5*(n.y+o.y)),h=new x(.5*(n.x+i.x),.5*(n.y+i.y)),l=new x(.5*(a.x+h.x),.5*(a.y+h.y));return[[t,o,a,l],[l,h,i,r]]},o=t=&gt;{let e=t[0].distSquared(t[1]),s=t[2].distSquared(t[3]),r=.25*t[0].distSquared(t[2]),n=.25*t[1].distSquared(t[3]),o=e&gt;s?e:s,i=r&gt;n?r:n;return 18*(o&gt;i?o:i)},i=(t,e)=&gt;Math.sqrt(t.distSquared(e)),a=(t,e)=&gt;t.scale(2/3).add(e.scale(1/3)),h=t=&gt;{let e,s,r,n,o,i,a,h=new g;return t.match(/(\w+\(\s*[^)]+\))+/g).forEach(t=&gt;{let l=t.match(/[\w.-]+/g),d=l.shift();switch(d){case&quot;translate&quot;:2===l.length?e=new g(1,0,0,1,l[0],l[1]):(console.error(&quot;mesh.js: translate does not have 2 arguments!&quot;),e=new g(1,0,0,1,0,0)),h=h.append(e);break;case&quot;scale&quot;:1===l.length?s=new g(l[0],0,0,l[0],0,0):2===l.length?s=new g(l[0],0,0,l[1],0,0):(console.error(&quot;mesh.js: scale does not have 1 or 2 arguments!&quot;),s=new g(1,0,0,1,0,0)),h=h.append(s);break;case&quot;rotate&quot;:if(3===l.length&amp;&amp;(e=new g(1,0,0,1,l[1],l[2]),h=h.append(e)),l[0]){r=l[0]*Math.PI/180;let t=Math.cos(r),e=Math.sin(r);Math.abs(t)&lt;1e-16&amp;&amp;(t=0),Math.abs(e)&lt;1e-16&amp;&amp;(e=0),a=new g(t,e,-e,t,0,0),h=h.append(a)}else console.error(&quot;math.js: No argument to rotate transform!&quot;);3===l.length&amp;&amp;(e=new g(1,0,0,1,-l[1],-l[2]),h=h.append(e));break;case&quot;skewX&quot;:l[0]?(r=l[0]*Math.PI/180,n=Math.tan(r),o=new g(1,0,n,1,0,0),h=h.append(o)):console.error(&quot;math.js: No argument to skewX transform!&quot;);break;case&quot;skewY&quot;:l[0]?(r=l[0]*Math.PI/180,n=Math.tan(r),i=new g(1,n,0,1,0,0),h=h.append(i)):console.error(&quot;math.js: No argument to skewY transform!&quot;);break;case&quot;matrix&quot;:6===l.length?h=h.append(new g(...l)):console.error(&quot;math.js: Incorrect number of arguments for matrix!&quot;);break;default:console.error(&quot;mesh.js: Unhandled transform type: &quot;+d)}}),h},l=t=&gt;{let e=[],s=t.split(/[ ,]+/);for(let t=0,r=s.length-1;t&lt;r;t+=2)e.push(new x(parseFloat(s[t]),parseFloat(s[t+1])));return e},d=(t,e)=&gt;{for(let s in e)t.setAttribute(s,e[s])},c=(t,e,s,r,n)=&gt;{let o,i,a=[0,0,0,0];for(let h=0;h&lt;3;++h)e[h]&lt;t[h]&amp;&amp;e[h]&lt;s[h]||t[h]&lt;e[h]&amp;&amp;s[h]&lt;e[h]?a[h]=0:(a[h]=.5*((e[h]-t[h])/r+(s[h]-e[h])/n),o=Math.abs(3*(e[h]-t[h])/r),i=Math.abs(3*(s[h]-e[h])/n),a[h]&gt;o?a[h]=o:a[h]&gt;i&amp;&amp;(a[h]=i));return a},u=[[1,0,0,0,0,0,0,0,0,0,0,0,0,0,0,0],[0,0,0,0,1,0,0,0,0,0,0,0,0,0,0,0],[-3,3,0,0,-2,-1,0,0,0,0,0,0,0,0,0,0],[2,-2,0,0,1,1,0,0,0,0,0,0,0,0,0,0],[0,0,0,0,0,0,0,0,1,0,0,0,0,0,0,0],[0,0,0,0,0,0,0,0,0,0,0,0,1,0,0,0],[0,0,0,0,0,0,0,0,-3,3,0,0,-2,-1,0,0],[0,0,0,0,0,0,0,0,2,-2,0,0,1,1,0,0],[-3,0,3,0,0,0,0,0,-2,0,-1,0,0,0,0,0],[0,0,0,0,-3,0,3,0,0,0,0,0,-2,0,-1,0],[9,-9,-9,9,6,3,-6,-3,6,-6,3,-3,4,2,2,1],[-6,6,6,-6,-3,-3,3,3,-4,4,-2,2,-2,-2,-1,-1],[2,0,-2,0,0,0,0,0,1,0,1,0,0,0,0,0],[0,0,0,0,2,0,-2,0,0,0,0,0,1,0,1,0],[-6,6,6,-6,-4,-2,4,2,-3,3,-3,3,-2,-1,-2,-1],[4,-4,-4,4,2,2,-2,-2,2,-2,2,-2,1,1,1,1]],f=t=&gt;{let e=[];for(let s=0;s&lt;16;++s){e[s]=0;for(let r=0;r&lt;16;++r)e[s]+=u[s][r]*t[r]}return e},p=(t,e,s)=&gt;{const r=e*e,n=s*s,o=e*e*e,i=s*s*s;return t[0]+t[1]*e+t[2]*r+t[3]*o+t[4]*s+t[5]*s*e+t[6]*s*r+t[7]*s*o+t[8]*n+t[9]*n*e+t[10]*n*r+t[11]*n*o+t[12]*i+t[13]*i*e+t[14]*i*r+t[15]*i*o},y=t=&gt;{let e=[],s=[],r=[];for(let s=0;s&lt;4;++s)e[s]=[],e[s][0]=n(t[0][s],t[1][s],t[2][s],t[3][s]),e[s][1]=[],e[s][1].push(...n(...e[s][0][0])),e[s][1].push(...n(...e[s][0][1])),e[s][2]=[],e[s][2].push(...n(...e[s][1][0])),e[s][2].push(...n(...e[s][1][1])),e[s][2].push(...n(...e[s][1][2])),e[s][2].push(...n(...e[s][1][3]));for(let t=0;t&lt;8;++t){s[t]=[];for(let r=0;r&lt;4;++r)s[t][r]=[],s[t][r][0]=n(e[0][2][t][r],e[1][2][t][r],e[2][2][t][r],e[3][2][t][r]),s[t][r][1]=[],s[t][r][1].push(...n(...s[t][r][0][0])),s[t][r][1].push(...n(...s[t][r][0][1])),s[t][r][2]=[],s[t][r][2].push(...n(...s[t][r][1][0])),s[t][r][2].push(...n(...s[t][r][1][1])),s[t][r][2].push(...n(...s[t][r][1][2])),s[t][r][2].push(...n(...s[t][r][1][3]))}for(let t=0;t&lt;8;++t){r[t]=[];for(let e=0;e&lt;8;++e)r[t][e]=[],r[t][e][0]=s[t][0][2][e],r[t][e][1]=s[t][1][2][e],r[t][e][2]=s[t][2][2][e],r[t][e][3]=s[t][3][2][e]}return r};class x{constructor(t,e){this.x=t||0,this.y=e||0}toString(){return`(x=${this.x}, y=${this.y})`}clone(){return new x(this.x,this.y)}add(t){return new x(this.x+t.x,this.y+t.y)}scale(t){return void 0===t.x?new x(this.x*t,this.y*t):new x(this.x*t.x,this.y*t.y)}distSquared(t){let e=this.x-t.x,s=this.y-t.y;return e*e+s*s}transform(t){let e=this.x*t.a+this.y*t.c+t.e,s=this.x*t.b+this.y*t.d+t.f;return new x(e,s)}}class g{constructor(t,e,s,r,n,o){void 0===t?(this.a=1,this.b=0,this.c=0,this.d=1,this.e=0,this.f=0):(this.a=t,this.b=e,this.c=s,this.d=r,this.e=n,this.f=o)}toString(){return`affine: ${this.a} ${this.c} ${this.e} \n       ${this.b} ${this.d} ${this.f}`}append(t){t instanceof g||console.error(&quot;mesh.js: argument to Affine.append is not affine!&quot;);let e=this.a*t.a+this.c*t.b,s=this.b*t.a+this.d*t.b,r=this.a*t.c+this.c*t.d,n=this.b*t.c+this.d*t.d,o=this.a*t.e+this.c*t.f+this.e,i=this.b*t.e+this.d*t.f+this.f;return new g(e,s,r,n,o,i)}}class w{constructor(t,e){this.nodes=t,this.colors=e}paintCurve(t,e){if(o(this.nodes)&gt;r){const s=n(...this.nodes);let r=[[],[]],o=[[],[]];for(let t=0;t&lt;4;++t)r[0][t]=this.colors[0][t],r[1][t]=(this.colors[0][t]+this.colors[1][t])/2,o[0][t]=r[1][t],o[1][t]=this.colors[1][t];let i=new w(s[0],r),a=new w(s[1],o);i.paintCurve(t,e),a.paintCurve(t,e)}else{let s=Math.round(this.nodes[0].x);if(s&gt;=0&amp;&amp;s&lt;e){let r=4*(~~this.nodes[0].y*e+s);t[r]=Math.round(this.colors[0][0]),t[r+1]=Math.round(this.colors[0][1]),t[r+2]=Math.round(this.colors[0][2]),t[r+3]=Math.round(this.colors[0][3])}}}}class m{constructor(t,e){this.nodes=t,this.colors=e}split(){let t=[[],[],[],[]],e=[[],[],[],[]],s=[[[],[]],[[],[]]],r=[[[],[]],[[],[]]];for(let s=0;s&lt;4;++s){const r=n(this.nodes[0][s],this.nodes[1][s],this.nodes[2][s],this.nodes[3][s]);t[0][s]=r[0][0],t[1][s]=r[0][1],t[2][s]=r[0][2],t[3][s]=r[0][3],e[0][s]=r[1][0],e[1][s]=r[1][1],e[2][s]=r[1][2],e[3][s]=r[1][3]}for(let t=0;t&lt;4;++t)s[0][0][t]=this.colors[0][0][t],s[0][1][t]=this.colors[0][1][t],s[1][0][t]=(this.colors[0][0][t]+this.colors[1][0][t])/2,s[1][1][t]=(this.colors[0][1][t]+this.colors[1][1][t])/2,r[0][0][t]=s[1][0][t],r[0][1][t]=s[1][1][t],r[1][0][t]=this.colors[1][0][t],r[1][1][t]=this.colors[1][1][t];return[new m(t,s),new m(e,r)]}paint(t,e){let s,n=!1;for(let t=0;t&lt;4;++t)if((s=o([this.nodes[0][t],this.nodes[1][t],this.nodes[2][t],this.nodes[3][t]]))&gt;r){n=!0;break}if(n){let s=this.split();s[0].paint(t,e),s[1].paint(t,e)}else{new w([...this.nodes[0]],[...this.colors[0]]).paintCurve(t,e)}}}class b{constructor(t){this.readMesh(t),this.type=t.getAttribute(&quot;type&quot;)||&quot;bilinear&quot;}readMesh(t){let e=[[]],s=[[]],r=Number(t.getAttribute(&quot;x&quot;)),n=Number(t.getAttribute(&quot;y&quot;));e[0][0]=new x(r,n);let o=t.children;for(let t=0,r=o.length;t&lt;r;++t){e[3*t+1]=[],e[3*t+2]=[],e[3*t+3]=[],s[t+1]=[];let r=o[t].children;for(let n=0,o=r.length;n&lt;o;++n){let o=r[n].children;for(let r=0,i=o.length;r&lt;i;++r){let i=r;0!==t&amp;&amp;++i;let h,d=o[r].getAttribute(&quot;path&quot;),c=&quot;l&quot;;null!=d&amp;&amp;(c=(h=d.match(/\s*([lLcC])\s*(.*)/))[1]);let u=l(h[2]);switch(c){case&quot;l&quot;:0===i?(e[3*t][3*n+3]=u[0].add(e[3*t][3*n]),e[3*t][3*n+1]=a(e[3*t][3*n],e[3*t][3*n+3]),e[3*t][3*n+2]=a(e[3*t][3*n+3],e[3*t][3*n])):1===i?(e[3*t+3][3*n+3]=u[0].add(e[3*t][3*n+3]),e[3*t+1][3*n+3]=a(e[3*t][3*n+3],e[3*t+3][3*n+3]),e[3*t+2][3*n+3]=a(e[3*t+3][3*n+3],e[3*t][3*n+3])):2===i?(0===n&amp;&amp;(e[3*t+3][3*n+0]=u[0].add(e[3*t+3][3*n+3])),e[3*t+3][3*n+1]=a(e[3*t+3][3*n],e[3*t+3][3*n+3]),e[3*t+3][3*n+2]=a(e[3*t+3][3*n+3],e[3*t+3][3*n])):(e[3*t+1][3*n]=a(e[3*t][3*n],e[3*t+3][3*n]),e[3*t+2][3*n]=a(e[3*t+3][3*n],e[3*t][3*n]));break;case&quot;L&quot;:0===i?(e[3*t][3*n+3]=u[0],e[3*t][3*n+1]=a(e[3*t][3*n],e[3*t][3*n+3]),e[3*t][3*n+2]=a(e[3*t][3*n+3],e[3*t][3*n])):1===i?(e[3*t+3][3*n+3]=u[0],e[3*t+1][3*n+3]=a(e[3*t][3*n+3],e[3*t+3][3*n+3]),e[3*t+2][3*n+3]=a(e[3*t+3][3*n+3],e[3*t][3*n+3])):2===i?(0===n&amp;&amp;(e[3*t+3][3*n+0]=u[0]),e[3*t+3][3*n+1]=a(e[3*t+3][3*n],e[3*t+3][3*n+3]),e[3*t+3][3*n+2]=a(e[3*t+3][3*n+3],e[3*t+3][3*n])):(e[3*t+1][3*n]=a(e[3*t][3*n],e[3*t+3][3*n]),e[3*t+2][3*n]=a(e[3*t+3][3*n],e[3*t][3*n]));break;case&quot;c&quot;:0===i?(e[3*t][3*n+1]=u[0].add(e[3*t][3*n]),e[3*t][3*n+2]=u[1].add(e[3*t][3*n]),e[3*t][3*n+3]=u[2].add(e[3*t][3*n])):1===i?(e[3*t+1][3*n+3]=u[0].add(e[3*t][3*n+3]),e[3*t+2][3*n+3]=u[1].add(e[3*t][3*n+3]),e[3*t+3][3*n+3]=u[2].add(e[3*t][3*n+3])):2===i?(e[3*t+3][3*n+2]=u[0].add(e[3*t+3][3*n+3]),e[3*t+3][3*n+1]=u[1].add(e[3*t+3][3*n+3]),0===n&amp;&amp;(e[3*t+3][3*n+0]=u[2].add(e[3*t+3][3*n+3]))):(e[3*t+2][3*n]=u[0].add(e[3*t+3][3*n]),e[3*t+1][3*n]=u[1].add(e[3*t+3][3*n]));break;case&quot;C&quot;:0===i?(e[3*t][3*n+1]=u[0],e[3*t][3*n+2]=u[1],e[3*t][3*n+3]=u[2]):1===i?(e[3*t+1][3*n+3]=u[0],e[3*t+2][3*n+3]=u[1],e[3*t+3][3*n+3]=u[2]):2===i?(e[3*t+3][3*n+2]=u[0],e[3*t+3][3*n+1]=u[1],0===n&amp;&amp;(e[3*t+3][3*n+0]=u[2])):(e[3*t+2][3*n]=u[0],e[3*t+1][3*n]=u[1]);break;default:console.error(&quot;mesh.js: &quot;+c+&quot; invalid path type.&quot;)}if(0===t&amp;&amp;0===n||r&gt;0){let e=window.getComputedStyle(o[r]).stopColor.match(/^rgb\s*\(\s*(\d+)\s*,\s*(\d+)\s*,\s*(\d+)\s*\)$/i),a=window.getComputedStyle(o[r]).stopOpacity,h=255;a&amp;&amp;(h=Math.floor(255*a)),e&amp;&amp;(0===i?(s[t][n]=[],s[t][n][0]=Math.floor(e[1]),s[t][n][1]=Math.floor(e[2]),s[t][n][2]=Math.floor(e[3]),s[t][n][3]=h):1===i?(s[t][n+1]=[],s[t][n+1][0]=Math.floor(e[1]),s[t][n+1][1]=Math.floor(e[2]),s[t][n+1][2]=Math.floor(e[3]),s[t][n+1][3]=h):2===i?(s[t+1][n+1]=[],s[t+1][n+1][0]=Math.floor(e[1]),s[t+1][n+1][1]=Math.floor(e[2]),s[t+1][n+1][2]=Math.floor(e[3]),s[t+1][n+1][3]=h):3===i&amp;&amp;(s[t+1][n]=[],s[t+1][n][0]=Math.floor(e[1]),s[t+1][n][1]=Math.floor(e[2]),s[t+1][n][2]=Math.floor(e[3]),s[t+1][n][3]=h))}}e[3*t+1][3*n+1]=new x,e[3*t+1][3*n+2]=new x,e[3*t+2][3*n+1]=new x,e[3*t+2][3*n+2]=new x,e[3*t+1][3*n+1].x=(-4*e[3*t][3*n].x+6*(e[3*t][3*n+1].x+e[3*t+1][3*n].x)+-2*(e[3*t][3*n+3].x+e[3*t+3][3*n].x)+3*(e[3*t+3][3*n+1].x+e[3*t+1][3*n+3].x)+-1*e[3*t+3][3*n+3].x)/9,e[3*t+1][3*n+2].x=(-4*e[3*t][3*n+3].x+6*(e[3*t][3*n+2].x+e[3*t+1][3*n+3].x)+-2*(e[3*t][3*n].x+e[3*t+3][3*n+3].x)+3*(e[3*t+3][3*n+2].x+e[3*t+1][3*n].x)+-1*e[3*t+3][3*n].x)/9,e[3*t+2][3*n+1].x=(-4*e[3*t+3][3*n].x+6*(e[3*t+3][3*n+1].x+e[3*t+2][3*n].x)+-2*(e[3*t+3][3*n+3].x+e[3*t][3*n].x)+3*(e[3*t][3*n+1].x+e[3*t+2][3*n+3].x)+-1*e[3*t][3*n+3].x)/9,e[3*t+2][3*n+2].x=(-4*e[3*t+3][3*n+3].x+6*(e[3*t+3][3*n+2].x+e[3*t+2][3*n+3].x)+-2*(e[3*t+3][3*n].x+e[3*t][3*n+3].x)+3*(e[3*t][3*n+2].x+e[3*t+2][3*n].x)+-1*e[3*t][3*n].x)/9,e[3*t+1][3*n+1].y=(-4*e[3*t][3*n].y+6*(e[3*t][3*n+1].y+e[3*t+1][3*n].y)+-2*(e[3*t][3*n+3].y+e[3*t+3][3*n].y)+3*(e[3*t+3][3*n+1].y+e[3*t+1][3*n+3].y)+-1*e[3*t+3][3*n+3].y)/9,e[3*t+1][3*n+2].y=(-4*e[3*t][3*n+3].y+6*(e[3*t][3*n+2].y+e[3*t+1][3*n+3].y)+-2*(e[3*t][3*n].y+e[3*t+3][3*n+3].y)+3*(e[3*t+3][3*n+2].y+e[3*t+1][3*n].y)+-1*e[3*t+3][3*n].y)/9,e[3*t+2][3*n+1].y=(-4*e[3*t+3][3*n].y+6*(e[3*t+3][3*n+1].y+e[3*t+2][3*n].y)+-2*(e[3*t+3][3*n+3].y+e[3*t][3*n].y)+3*(e[3*t][3*n+1].y+e[3*t+2][3*n+3].y)+-1*e[3*t][3*n+3].y)/9,e[3*t+2][3*n+2].y=(-4*e[3*t+3][3*n+3].y+6*(e[3*t+3][3*n+2].y+e[3*t+2][3*n+3].y)+-2*(e[3*t+3][3*n].y+e[3*t][3*n+3].y)+3*(e[3*t][3*n+2].y+e[3*t+2][3*n].y)+-1*e[3*t][3*n].y)/9}}this.nodes=e,this.colors=s}paintMesh(t,e){let s=(this.nodes.length-1)/3,r=(this.nodes[0].length-1)/3;if(&quot;bilinear&quot;===this.type||s&lt;2||r&lt;2){let n;for(let o=0;o&lt;s;++o)for(let s=0;s&lt;r;++s){let r=[];for(let t=3*o,e=3*o+4;t&lt;e;++t)r.push(this.nodes[t].slice(3*s,3*s+4));let i=[];i.push(this.colors[o].slice(s,s+2)),i.push(this.colors[o+1].slice(s,s+2)),(n=new m(r,i)).paint(t,e)}}else{let n,o,a,h,l,d,u;const x=s,g=r;s++,r++;let w=new Array(s);for(let t=0;t&lt;s;++t){w[t]=new Array(r);for(let e=0;e&lt;r;++e)w[t][e]=[],w[t][e][0]=this.nodes[3*t][3*e],w[t][e][1]=this.colors[t][e]}for(let t=0;t&lt;s;++t)for(let e=0;e&lt;r;++e)0!==t&amp;&amp;t!==x&amp;&amp;(n=i(w[t-1][e][0],w[t][e][0]),o=i(w[t+1][e][0],w[t][e][0]),w[t][e][2]=c(w[t-1][e][1],w[t][e][1],w[t+1][e][1],n,o)),0!==e&amp;&amp;e!==g&amp;&amp;(n=i(w[t][e-1][0],w[t][e][0]),o=i(w[t][e+1][0],w[t][e][0]),w[t][e][3]=c(w[t][e-1][1],w[t][e][1],w[t][e+1][1],n,o));for(let t=0;t&lt;r;++t){w[0][t][2]=[],w[x][t][2]=[];for(let e=0;e&lt;4;++e)n=i(w[1][t][0],w[0][t][0]),o=i(w[x][t][0],w[x-1][t][0]),w[0][t][2][e]=n&gt;0?2*(w[1][t][1][e]-w[0][t][1][e])/n-w[1][t][2][e]:0,w[x][t][2][e]=o&gt;0?2*(w[x][t][1][e]-w[x-1][t][1][e])/o-w[x-1][t][2][e]:0}for(let t=0;t&lt;s;++t){w[t][0][3]=[],w[t][g][3]=[];for(let e=0;e&lt;4;++e)n=i(w[t][1][0],w[t][0][0]),o=i(w[t][g][0],w[t][g-1][0]),w[t][0][3][e]=n&gt;0?2*(w[t][1][1][e]-w[t][0][1][e])/n-w[t][1][3][e]:0,w[t][g][3][e]=o&gt;0?2*(w[t][g][1][e]-w[t][g-1][1][e])/o-w[t][g-1][3][e]:0}for(let s=0;s&lt;x;++s)for(let r=0;r&lt;g;++r){let n=i(w[s][r][0],w[s+1][r][0]),o=i(w[s][r+1][0],w[s+1][r+1][0]),c=i(w[s][r][0],w[s][r+1][0]),x=i(w[s+1][r][0],w[s+1][r+1][0]),g=[[],[],[],[]];for(let t=0;t&lt;4;++t){(d=[])[0]=w[s][r][1][t],d[1]=w[s+1][r][1][t],d[2]=w[s][r+1][1][t],d[3]=w[s+1][r+1][1][t],d[4]=w[s][r][2][t]*n,d[5]=w[s+1][r][2][t]*n,d[6]=w[s][r+1][2][t]*o,d[7]=w[s+1][r+1][2][t]*o,d[8]=w[s][r][3][t]*c,d[9]=w[s+1][r][3][t]*x,d[10]=w[s][r+1][3][t]*c,d[11]=w[s+1][r+1][3][t]*x,d[12]=0,d[13]=0,d[14]=0,d[15]=0,u=f(d);for(let e=0;e&lt;9;++e){g[t][e]=[];for(let s=0;s&lt;9;++s)g[t][e][s]=p(u,e/8,s/8),g[t][e][s]&gt;255?g[t][e][s]=255:g[t][e][s]&lt;0&amp;&amp;(g[t][e][s]=0)}}h=[];for(let t=3*s,e=3*s+4;t&lt;e;++t)h.push(this.nodes[t].slice(3*r,3*r+4));l=y(h);for(let s=0;s&lt;8;++s)for(let r=0;r&lt;8;++r)(a=new m(l[s][r],[[[g[0][s][r],g[1][s][r],g[2][s][r],g[3][s][r]],[g[0][s][r+1],g[1][s][r+1],g[2][s][r+1],g[3][s][r+1]]],[[g[0][s+1][r],g[1][s+1][r],g[2][s+1][r],g[3][s+1][r]],[g[0][s+1][r+1],g[1][s+1][r+1],g[2][s+1][r+1],g[3][s+1][r+1]]]])).paint(t,e)}}}transform(t){if(t instanceof x)for(let e=0,s=this.nodes.length;e&lt;s;++e)for(let s=0,r=this.nodes[0].length;s&lt;r;++s)this.nodes[e][s]=this.nodes[e][s].add(t);else if(t instanceof g)for(let e=0,s=this.nodes.length;e&lt;s;++e)for(let s=0,r=this.nodes[0].length;s&lt;r;++s)this.nodes[e][s]=this.nodes[e][s].transform(t)}scale(t){for(let e=0,s=this.nodes.length;e&lt;s;++e)for(let s=0,r=this.nodes[0].length;s&lt;r;++s)this.nodes[e][s]=this.nodes[e][s].scale(t)}}document.querySelectorAll(&quot;rect,circle,ellipse,path,text&quot;).forEach((r,n)=&gt;{let o=r.getAttribute(&quot;id&quot;);o||(o=&quot;patchjs_shape&quot;+n,r.setAttribute(&quot;id&quot;,o));const i=r.style.fill.match(/^url\(\s*&quot;?\s*#([^\s&quot;]+)&quot;?\s*\)/),a=r.style.stroke.match(/^url\(\s*&quot;?\s*#([^\s&quot;]+)&quot;?\s*\)/);if(i&amp;&amp;i[1]){const a=document.getElementById(i[1]);if(a&amp;&amp;&quot;meshgradient&quot;===a.nodeName){const i=r.getBBox();let l=document.createElementNS(s,&quot;canvas&quot;);d(l,{width:i.width,height:i.height});const c=l.getContext(&quot;2d&quot;);let u=c.createImageData(i.width,i.height);const f=new b(a);&quot;objectBoundingBox&quot;===a.getAttribute(&quot;gradientUnits&quot;)&amp;&amp;f.scale(new x(i.width,i.height));const p=a.getAttribute(&quot;gradientTransform&quot;);null!=p&amp;&amp;f.transform(h(p)),&quot;userSpaceOnUse&quot;===a.getAttribute(&quot;gradientUnits&quot;)&amp;&amp;f.transform(new x(-i.x,-i.y)),f.paintMesh(u.data,l.width),c.putImageData(u,0,0);const y=document.createElementNS(t,&quot;image&quot;);d(y,{width:i.width,height:i.height,x:i.x,y:i.y});let g=l.toDataURL();y.setAttributeNS(e,&quot;xlink:href&quot;,g),r.parentNode.insertBefore(y,r),r.style.fill=&quot;none&quot;;const w=document.createElementNS(t,&quot;use&quot;);w.setAttributeNS(e,&quot;xlink:href&quot;,&quot;#&quot;+o);const m=&quot;patchjs_clip&quot;+n,M=document.createElementNS(t,&quot;clipPath&quot;);M.setAttribute(&quot;id&quot;,m),M.appendChild(w),r.parentElement.insertBefore(M,r),y.setAttribute(&quot;clip-path&quot;,&quot;url(#&quot;+m+&quot;)&quot;),u=null,l=null,g=null}}if(a&amp;&amp;a[1]){const o=document.getElementById(a[1]);if(o&amp;&amp;&quot;meshgradient&quot;===o.nodeName){const i=parseFloat(r.style.strokeWidth.slice(0,-2))*(parseFloat(r.style.strokeMiterlimit)||parseFloat(r.getAttribute(&quot;stroke-miterlimit&quot;))||1),a=r.getBBox(),l=Math.trunc(a.width+i),c=Math.trunc(a.height+i),u=Math.trunc(a.x-i/2),f=Math.trunc(a.y-i/2);let p=document.createElementNS(s,&quot;canvas&quot;);d(p,{width:l,height:c});const y=p.getContext(&quot;2d&quot;);let g=y.createImageData(l,c);const w=new b(o);&quot;objectBoundingBox&quot;===o.getAttribute(&quot;gradientUnits&quot;)&amp;&amp;w.scale(new x(l,c));const m=o.getAttribute(&quot;gradientTransform&quot;);null!=m&amp;&amp;w.transform(h(m)),&quot;userSpaceOnUse&quot;===o.getAttribute(&quot;gradientUnits&quot;)&amp;&amp;w.transform(new x(-u,-f)),w.paintMesh(g.data,p.width),y.putImageData(g,0,0);const M=document.createElementNS(t,&quot;image&quot;);d(M,{width:l,height:c,x:0,y:0});let S=p.toDataURL();M.setAttributeNS(e,&quot;xlink:href&quot;,S);const k=&quot;pattern_clip&quot;+n,A=document.createElementNS(t,&quot;pattern&quot;);d(A,{id:k,patternUnits:&quot;userSpaceOnUse&quot;,width:l,height:c,x:u,y:f}),A.appendChild(M),o.parentNode.appendChild(A),r.style.stroke=&quot;url(#&quot;+k+&quot;)&quot;,g=null,p=null,S=null}}})}();
</script>
</svg>
